<?xml version="1.0" encoding="UTF-8" standalone="no"?>
<!-- Created with Inkscape (http://www.inkscape.org/) -->

<svg
   width="72.291061mm"
   height="88.203873mm"
   viewBox="0 0 72.291061 88.203873"
   version="1.1"
   id="svg1"
   xml:space="preserve"
   inkscape:version="1.4.2 (ebf0e940d0, 2025-05-08)"
   sodipodi:docname="icon.svg"
   xmlns:inkscape="http://www.inkscape.org/namespaces/inkscape"
   xmlns:sodipodi="http://sodipodi.sourceforge.net/DTD/sodipodi-0.dtd"
   xmlns="http://www.w3.org/2000/svg"
   xmlns:svg="http://www.w3.org/2000/svg"><sodipodi:namedview
     id="namedview1"
     pagecolor="#ffffff"
     bordercolor="#000000"
     borderopacity="0.25"
     inkscape:showpageshadow="2"
     inkscape:pageopacity="0.0"
     inkscape:pagecheckerboard="0"
     inkscape:deskcolor="#d1d1d1"
     inkscape:document-units="mm"
     inkscape:zoom="0.72426347"
     inkscape:cx="496.36633"
     inkscape:cy="171.20841"
     inkscape:window-width="1920"
     inkscape:window-height="1011"
     inkscape:window-x="0"
     inkscape:window-y="32"
     inkscape:window-maximized="1"
     inkscape:current-layer="layer1" /><defs
     id="defs1" /><g
     inkscape:label="Layer 1"
     inkscape:groupmode="layer"
     id="layer1"
     transform="translate(-80.744579,-114.0446)"><g
       id="g1"
       transform="matrix(1.2956226,0,0,1.2976729,46.976598,79.224479)"
       style="stroke:#000000;stroke-width:0.46273183;stroke-dasharray:none"><path
         style="fill:#f6aebc;stroke:#000000;stroke-width:0.46273183;stroke-dasharray:none"
         d="m 53.479375,94.386334 c -1.180398,-0.245256 -2.213642,-1.04776 -2.769226,-2.150813 -0.73553,-1.460317 -0.443009,-3.308281 0.711208,-4.492969 2.165159,-2.222319 5.870078,-1.245265 6.690343,1.764363 0.141521,0.519253 0.140731,1.45883 -0.0017,1.987968 -0.352139,1.308476 -1.343783,2.344019 -2.666812,2.78487 -0.324141,0.108008 -0.456905,0.125 -1.064668,0.136267 -0.381892,0.0071 -0.78652,-0.0063 -0.899173,-0.02969 z m 1.778681,-0.114574 c 0.152757,-0.04107 0.467546,-0.16618 0.699532,-0.278023 1.370904,-0.66093 2.19539,-1.980194 2.192784,-3.508686 -0.0014,-0.80121 -0.223477,-1.539355 -0.651449,-2.16497 -0.321094,-0.469381 -0.595905,-0.742259 -1.06501,-1.057519 -0.73315,-0.49271 -1.38637,-0.671752 -2.333105,-0.639486 -0.522063,0.01779 -0.660014,0.04014 -1.041523,0.168745 -1.259793,0.424662 -2.185335,1.393212 -2.557132,2.675958 -0.08892,0.306784 -0.103995,0.464403 -0.100906,1.055016 0.0033,0.629235 0.01573,0.731246 0.132694,1.087813 0.22758,0.69381 0.463841,1.090681 0.946252,1.589511 0.581004,0.600778 1.267587,0.970808 2.111426,1.137942 0.323062,0.06399 1.330994,0.02389 1.666437,-0.0663 z M 44.91799,88.991634 c -0.761807,-0.204896 -1.400108,-0.771872 -1.706731,-1.516019 -0.157705,-0.382734 -0.196728,-1.075453 -0.08512,-1.511083 0.19776,-0.771934 0.819654,-1.449062 1.579634,-1.719931 0.386631,-0.137801 1.017871,-0.166736 1.410031,-0.06463 1.876364,0.488532 2.520614,2.789438 1.160004,4.142896 -0.347345,0.34552 -0.73664,0.569713 -1.164312,0.670522 -0.368751,0.08692 -0.866532,0.08619 -1.193501,-0.0018 z m 1.24727,-0.0934 c 1.055031,-0.309891 1.755845,-1.231919 1.755845,-2.310081 0,-0.650238 -0.249197,-1.244719 -0.717944,-1.712719 -0.459606,-0.458873 -0.991571,-0.669691 -1.692302,-0.670661 -0.666137,-9.23e-4 -1.142617,0.18901 -1.638967,0.653321 -0.986445,0.922772 -0.999672,2.462898 -0.02937,3.419977 0.502692,0.495842 0.962351,0.685495 1.67468,0.690966 0.236108,0.0018 0.498392,-0.02684 0.648059,-0.0708 z M 59.146409,85.447771 C 53.261706,84.94126 47.838028,82.482044 43.646758,78.419884 c -2.064204,-2.000617 -3.809053,-4.401624 -5.1017,-7.020215 -0.215118,-0.435776 -0.390811,-0.810725 -0.390429,-0.833218 3.82e-4,-0.02249 0.203892,0.365297 0.452245,0.861756 0.248353,0.496459 0.584271,1.131788 0.746486,1.411842 0.533288,0.920691 1.56689,2.447148 2.00602,2.962555 0.06508,0.07638 0.332928,0.39925 0.595229,0.717493 0.597752,0.725237 2.245825,2.377727 2.98257,2.990562 1.90987,1.588657 3.945392,2.861784 6.08535,3.806112 6.813005,3.006466 14.729967,2.831064 21.328537,-0.472538 1.84937,-0.925895 3.857829,-2.230607 4.563487,-2.96448 0.845902,-0.879725 1.432193,-1.972836 1.727472,-3.220786 0.170278,-0.719655 0.200656,-1.852471 0.07014,-2.615646 -0.218345,-1.276766 -0.727364,-2.341546 -1.637414,-3.425187 -0.965323,-1.149458 -2.381701,-1.976032 -3.88787,-2.268894 -0.523995,-0.101886 -1.538009,-0.138231 -2.059665,-0.07382 -0.967812,0.119492 -1.879156,0.507558 -2.792262,1.188992 -1.699095,1.268002 -3.528881,2.023457 -5.622648,2.321395 -0.72396,0.103018 -2.32658,0.100722 -3.05671,-0.0044 -2.883846,-0.415123 -5.427519,-1.771614 -7.27722,-3.880799 -0.830337,-0.94682 -1.672579,-2.334505 -2.135461,-3.518407 -0.201225,-0.514667 -0.518477,-1.561221 -0.513802,-1.694933 0.0015,-0.04252 0.07298,0.174995 0.158866,0.483362 0.994354,3.569982 3.556532,6.439858 6.967077,7.80377 1.513109,0.605107 2.985254,0.859127 4.69739,0.810536 2.536747,-0.07199 4.667396,-0.831546 6.823134,-2.432373 0.993035,-0.737417 1.824964,-1.064081 2.977872,-1.169289 2.211852,-0.201841 4.475554,0.773539 5.892838,2.539096 1.03718,1.292048 1.529701,2.54136 1.624946,4.121775 0.07449,1.235995 -0.282563,2.685371 -0.933661,3.790003 -0.645223,1.094666 -1.279681,1.690954 -2.983164,2.803693 -3.544166,2.315097 -7.560924,3.679388 -11.822222,4.015412 -0.702456,0.05539 -3.320304,0.05178 -3.985782,-0.0055 z M 37.997063,70.219526 c -0.06803,-0.156862 -0.116068,-0.292825 -0.106754,-0.30214 0.0093,-0.0093 0.0724,0.111604 0.140186,0.268709 0.06779,0.157104 0.115826,0.293067 0.106753,0.30214 -0.0091,0.0091 -0.07216,-0.111846 -0.140185,-0.268709 z m -0.230798,-0.549352 c -0.104459,-0.261069 -0.08836,-0.299917 0.02159,-0.0521 0.04965,0.111913 0.08203,0.211722 0.07196,0.221797 -0.01008,0.01008 -0.05217,-0.06629 -0.09355,-0.169699 z m -0.12152,-0.285329 c 0,-0.01212 -0.09187,-0.274799 -0.204149,-0.583731 -0.341582,-0.939822 -0.913499,-2.967072 -0.903973,-3.204274 0.0016,-0.03883 0.0922,0.283522 0.201436,0.716332 0.237786,0.942189 0.480689,1.748377 0.75207,2.496093 0.110173,0.303555 0.190033,0.562199 0.177466,0.574767 -0.01257,0.01257 -0.02285,0.01293 -0.02285,8.13e-4 z m -7.41899,-0.443412 c 0.08217,-0.01023 0.227989,-0.01039 0.324029,-3.73e-4 0.09604,0.01002 0.02881,0.01839 -0.149409,0.01859 -0.178217,2.06e-4 -0.256795,-0.008 -0.17462,-0.01822 z m -0.566019,-0.0438 c -0.237703,-0.0518 -0.725063,-0.208395 -0.706465,-0.226993 0.01145,-0.01145 0.112599,0.01164 0.224773,0.05132 0.112174,0.03967 0.360181,0.100519 0.551127,0.13521 0.192763,0.03502 0.275115,0.06253 0.18516,0.06186 -0.08911,-6.68e-4 -0.203676,-0.01029 -0.254595,-0.02139 z m 1.16936,-0.0018 c 0.05758,-0.01107 0.140902,-0.01065 0.18516,9.34e-4 0.04426,0.01159 -0.0029,0.02065 -0.104692,0.02013 -0.101838,-5.14e-4 -0.138049,-0.01 -0.08047,-0.02107 z m 0.32349,-0.04421 c 0.03182,-0.01284 0.0839,-0.01284 0.115724,0 0.03183,0.01284 0.0058,0.02335 -0.05786,0.02335 -0.06365,0 -0.08969,-0.01051 -0.05786,-0.02335 z m 0.474471,-0.128063 c 1.156521,-0.405667 2.01574,-1.227261 2.4345,-2.327895 0.08507,-0.223577 0.155355,-0.380942 0.1562,-0.349699 8.44e-4,0.03124 -0.05143,0.197887 -0.116159,0.37032 -0.331631,0.883399 -1.060226,1.688492 -1.918021,2.119406 -0.270868,0.13607 -0.723292,0.302537 -0.806789,0.296853 -0.02784,-0.0019 0.08478,-0.05094 0.250269,-0.108985 z m -3.124569,-0.254993 c -0.675375,-0.377343 -1.251333,-0.962532 -1.588538,-1.613999 -0.18111,-0.349898 -0.381169,-0.917146 -0.376319,-1.067015 0.0014,-0.04187 0.05462,0.100927 0.11837,0.317333 0.298288,1.012587 0.972826,1.841375 1.917927,2.356506 0.189843,0.103475 0.324339,0.188154 0.29888,0.188176 -0.02546,2.1e-5 -0.192104,-0.08143 -0.37032,-0.181001 z m 5.745009,-2.641421 c 0.01557,-0.08911 0.04496,-0.422395 0.06532,-0.740638 l 0.03702,-0.578624 -0.0153,0.601769 c -0.0084,0.330972 -0.03781,0.66426 -0.06532,0.740638 l -0.05003,0.13887 z m -7.77478,-0.380759 c -0.01613,-0.134285 -0.02657,-0.369137 -0.0232,-0.521894 0.0044,-0.201443 0.01678,-0.138661 0.04494,0.228542 0.04089,0.533295 0.02799,0.707357 -0.02173,0.293352 z m 9.929769,-0.456774 c -0.05508,-0.295157 -0.09823,-0.576368 -0.09588,-0.624914 0.0023,-0.04855 0.0541,0.172116 0.115009,0.490359 0.06091,0.318243 0.104054,0.599454 0.09588,0.624914 -0.0082,0.02546 -0.05993,-0.195202 -0.115009,-0.490359 z m -9.909431,-0.467878 c -0.0045,-0.135954 0.08746,-0.608849 0.113403,-0.582904 0.0088,0.0088 -0.01221,0.171651 -0.04663,0.361941 -0.03443,0.19029 -0.06447,0.289723 -0.06677,0.220963 z m 7.781551,-0.152721 c 9.44e-4,-0.07638 0.01132,-0.10202 0.02305,-0.05698 0.01174,0.04504 0.01096,0.10753 -0.0017,0.138869 -0.01268,0.03134 -0.02228,-0.0055 -0.02134,-0.08189 z m 1.917266,-0.704412 c -0.116805,-0.902409 -0.166249,-1.443054 -0.159948,-1.748953 0.0039,-0.187585 0.01861,-0.104943 0.04542,0.254594 0.02184,0.292784 0.08271,0.872979 0.135283,1.289323 0.05257,0.416345 0.08664,0.765934 0.07571,0.776865 -0.01093,0.01093 -0.05434,-0.246392 -0.09646,-0.571829 z m -1.989939,0.397741 c -0.01626,-0.08133 -0.021,-0.156448 -0.01051,-0.166932 0.01048,-0.01048 0.03344,0.04641 0.05102,0.126429 0.01758,0.08002 0.02231,0.155138 0.01051,0.166932 -0.01179,0.01179 -0.03475,-0.0451 -0.05102,-0.126429 z M 26.631709,63.83668 c -0.0014,-0.03819 0.01765,-0.100681 0.04233,-0.13887 0.05468,-0.08462 0.05468,-0.01153 0,0.115725 -0.02623,0.06104 -0.04065,0.06893 -0.04233,0.02314 z m 7.388934,-0.322494 c -0.360269,-0.884243 -1.101477,-1.650943 -1.994479,-2.063072 -0.484642,-0.223667 -0.859629,-0.3088 -1.53321,-0.348081 l -0.601768,-0.03509 0.624913,0.01516 c 0.745388,0.01808 1.010519,0.08178 1.643292,0.394804 0.551499,0.272823 1.029529,0.656719 1.360099,1.092269 0.242995,0.320164 0.675253,1.13414 0.646096,1.216651 -0.0087,0.02448 -0.07388,-0.09821 -0.144943,-0.272633 z m -7.29788,0.0679 c -0.0033,-0.07729 0.320128,-0.67995 0.486703,-0.90687 0.246744,-0.336132 0.811506,-0.846347 1.177528,-1.063797 0.326968,-0.194248 0.993494,-0.460392 1.1488,-0.458716 0.04271,4.61e-4 -0.121071,0.06816 -0.363955,0.150443 -1.014133,0.34356 -1.793815,1.02751 -2.286087,2.005395 -0.08855,0.175909 -0.161898,0.299004 -0.162989,0.273545 z M 49.637594,62.28595 c -0.03134,-0.178216 -0.06564,-0.428182 -0.07624,-0.555479 -0.01059,-0.127297 0.02161,-0.0023 0.07156,0.27774 0.04995,0.280054 0.08426,0.530019 0.07623,0.555479 -0.008,0.02546 -0.04023,-0.09952 -0.07156,-0.27774 z M 35.99874,60.295484 c 2.2e-5,-0.738324 0.0064,-1.033884 0.0142,-0.656799 0.0078,0.377084 0.0078,0.981167 -4e-5,1.342407 -0.0078,0.36124 -0.01418,0.05272 -0.01416,-0.685608 z m 13.509462,0.972088 c 3.47e-4,-0.127297 0.0093,-0.173879 0.01998,-0.103516 0.01064,0.07036 0.01036,0.174516 -6.32e-4,0.23145 -0.01099,0.05693 -0.01969,-6.37e-4 -0.01935,-0.127934 z M 29.695334,61.119769 c 0.04504,-0.01174 0.10753,-0.01096 0.13887,0.0017 0.03134,0.01268 -0.0055,0.02228 -0.08189,0.02134 -0.07638,-9.43e-4 -0.10202,-0.01132 -0.05698,-0.02305 z m 43.336962,-0.0106 c -1.313254,-0.210297 -2.360416,-1.092352 -2.779502,-2.341254 -0.16736,-0.498745 -0.205895,-1.237778 -0.09197,-1.7638 0.100257,-0.462897 0.415083,-1.115781 0.714974,-1.482704 0.271732,-0.332471 0.735272,-0.692608 1.15468,-0.897104 0.913995,-0.445646 2.098373,-0.438561 3.004935,0.01798 1.677867,0.84496 2.370365,2.851661 1.567494,4.542241 -0.425664,0.896309 -1.31469,1.62681 -2.250968,1.849591 -0.371223,0.08833 -1.009903,0.124655 -1.319646,0.07505 z m 1.383168,-0.150175 c 1.03497,-0.286805 1.963232,-1.15748 2.293637,-2.151345 0.533813,-1.605726 -0.193014,-3.380941 -1.685253,-4.116093 -0.540964,-0.266505 -1.010728,-0.360221 -1.665005,-0.332161 -0.920321,0.03947 -1.576135,0.327714 -2.227418,0.978997 -0.41675,0.416749 -0.659701,0.80883 -0.8439,1.361908 -0.102439,0.307581 -0.118589,0.43819 -0.121156,0.979802 -0.0033,0.704589 0.07806,1.059772 0.371296,1.620147 0.724478,1.384476 2.35329,2.081207 3.877799,1.658745 z M 49.476556,59.878875 c 0.0092,-0.611027 0.03706,-1.204695 0.0619,-1.319263 0.04233,-0.195234 0.04342,-0.190877 0.01744,0.06943 -0.01525,0.152757 -0.0431,0.746425 -0.0619,1.319263 l -0.03418,1.041523 z M 36.051341,58.420743 c 0.02459,-0.693678 0.272521,-2.678722 0.32768,-2.623562 0.01033,0.01033 -0.03308,0.380925 -0.09646,0.823552 -0.06338,0.442627 -0.137221,1.065157 -0.16409,1.3834 -0.07807,0.924647 -0.08713,0.980913 -0.06713,0.41661 z m 13.545225,-0.208305 c 9.44e-4,-0.07638 0.01132,-0.10202 0.02305,-0.05698 0.01174,0.04504 0.01096,0.10753 -0.0017,0.138869 -0.01268,0.03134 -0.02228,-0.0055 -0.02134,-0.08189 z m -18.120983,0.03603 c 0.08217,-0.01023 0.227988,-0.01039 0.324029,-3.73e-4 0.09604,0.01002 0.02881,0.01839 -0.14941,0.01859 -0.178216,2.06e-4 -0.256795,-0.008 -0.174619,-0.01822 z m -0.345261,-0.04496 c 0.04504,-0.01174 0.10753,-0.01096 0.138869,0.0017 0.03134,0.01268 -0.0055,0.02228 -0.08189,0.02134 -0.07638,-9.44e-4 -0.10202,-0.01132 -0.05698,-0.02305 z m 1.181747,-0.05761 c 0.18581,-0.05084 0.467021,-0.160815 0.624913,-0.244396 0.384097,-0.203323 0.849764,-0.674529 1.050816,-1.063316 0.08805,-0.17027 0.167748,-0.301928 0.177102,-0.292574 0.04144,0.04144 -0.311739,0.617617 -0.514726,0.839717 -0.391804,0.428696 -0.995138,0.766312 -1.479689,0.82801 -0.131129,0.0167 -0.08415,-0.0057 0.141584,-0.06744 z m -1.667219,-0.06767 c -0.400269,-0.164617 -0.703323,-0.377395 -1.002427,-0.703814 -0.47901,-0.522755 -0.705378,-1.125443 -0.692956,-1.844944 l 0.0072,-0.418456 0.03306,0.532334 c 0.03743,0.602765 0.132425,0.909636 0.425905,1.375832 0.302323,0.480241 0.762819,0.841895 1.34985,1.060114 0.155612,0.05785 0.251686,0.105766 0.213496,0.106489 -0.03819,7.22e-4 -0.188555,-0.04768 -0.334148,-0.107555 z m 18.99236,-0.09724 c -0.0079,-0.224019 0.522873,-2.104559 0.578331,-2.049101 0.0091,0.0091 -0.06417,0.265633 -0.162933,0.569967 -0.09876,0.304334 -0.231894,0.78247 -0.295852,1.062524 -0.06396,0.280054 -0.117754,0.467528 -0.119546,0.41661 z M 79.421389,57.35605 c -0.268875,-0.08386 -0.646714,-0.349622 -0.81585,-0.573847 -0.24188,-0.320664 -0.334666,-0.64724 -0.308379,-1.085394 0.036,-0.600087 0.366609,-1.088402 0.909075,-1.342729 0.224027,-0.105032 0.321068,-0.122227 0.678053,-0.120147 0.3366,0.002 0.458537,0.0228 0.634929,0.108518 0.523907,0.254589 0.898437,0.781328 0.948556,1.334049 0.05926,0.65354 -0.342148,1.327694 -0.952905,1.600377 -0.239906,0.10711 -0.859962,0.152005 -1.093479,0.07917 z m 1.171624,-0.184196 c 0.543503,-0.289684 0.816234,-0.746275 0.816234,-1.366491 0,-0.302133 -0.02233,-0.418459 -0.12127,-0.631763 -0.154076,-0.33217 -0.438189,-0.616763 -0.771926,-0.77323 -0.220395,-0.103329 -0.32322,-0.122234 -0.654908,-0.120407 -0.494679,0.0027 -0.818703,0.142854 -1.129409,0.488434 -0.753872,0.838487 -0.393677,2.172353 0.681516,2.523783 0.115846,0.03786 0.332878,0.05736 0.541647,0.04865 0.289504,-0.01208 0.397295,-0.04062 0.638116,-0.168976 z M 34.173002,56.472403 c 0,-0.01078 0.0225,-0.09236 0.05001,-0.181302 0.0275,-0.08894 0.06602,-0.380429 0.08559,-0.647753 l 0.03558,-0.486044 0.0063,0.370319 c 0.0057,0.33759 -0.07813,0.865054 -0.148721,0.935648 -0.0158,0.0158 -0.02873,0.01991 -0.02873,0.0091 z m 16.089622,-0.690185 c 0.01438,-0.06365 0.200024,-0.469843 0.412552,-0.902653 0.415919,-0.847011 0.851979,-1.539584 1.340679,-2.129336 0.168776,-0.203676 0.385618,-0.490276 0.481871,-0.636889 0.09625,-0.146614 0.188454,-0.25312 0.204893,-0.236682 0.01644,0.01644 0.211324,-0.141856 0.433079,-0.351766 1.740556,-1.647582 3.930888,-2.703497 6.404175,-3.087324 0.661123,-0.102599 2.485941,-0.116987 3.124569,-0.02463 2.251197,0.325544 3.971074,1.045961 5.809383,2.433418 0.881205,0.665086 1.872399,1.100652 2.7975,1.229322 0.506282,0.07042 1.503618,0.06115 1.994887,-0.01853 1.461289,-0.237014 2.685807,-0.868559 3.724957,-1.921148 1.745603,-1.768178 2.384336,-4.188785 1.711344,-6.485483 -0.178974,-0.610777 -0.598322,-1.472507 -0.977644,-2.008987 -0.361866,-0.511791 -1.04314,-1.204707 -1.566919,-1.593695 -1.430447,-1.062333 -3.823481,-2.454323 -4.118055,-2.395408 -0.378251,0.07565 -3.206923,1.351558 -5.001057,2.255788 -5.815011,2.930726 -10.308081,6.408805 -13.181125,10.20349 -0.532205,0.702932 -1.121798,1.573652 -1.123552,1.659281 -6.02e-4,0.02939 -0.08083,-0.123613 -0.178282,-0.340019 -1.362717,-3.026055 -3.328908,-5.566576 -5.941857,-7.67749 -0.772431,-0.624022 -2.480457,-1.765651 -2.641643,-1.765651 -0.0922,0 -1.505249,1.455056 -2.065367,2.126767 -1.295341,1.553412 -2.337452,3.145381 -3.243675,4.955163 -0.340595,0.680189 -0.510642,1.058329 -0.880752,1.958572 -0.08166,0.198629 -0.157067,0.352552 -0.167568,0.342051 -0.0313,-0.0313 0.559163,-1.416492 0.90641,-2.126379 1.86623,-3.815182 4.566923,-6.984338 8.081904,-9.483792 6.084662,-4.32672 13.708683,-5.719314 20.990986,-3.834186 0.957414,0.24784 2.460098,0.755904 3.286584,1.111208 0.369162,0.158702 0.859347,0.366266 1.0893,0.461255 0.765897,0.316375 2.322,1.197472 3.331386,1.886297 0.905017,0.617602 1.336449,0.964846 1.806957,1.454355 2.09827,2.183012 2.509428,5.37679 1.017272,7.90194 -0.870692,1.473457 -2.214688,2.58305 -3.750027,3.095994 -0.807207,0.269682 -1.106742,0.311686 -2.198771,0.308341 -0.919563,-0.0028 -1.028968,-0.01215 -1.438926,-0.122695 C 69.805293,51.77118 69.28503,51.507529 68.334956,50.80489 67.149882,49.928454 66.236098,49.441012 64.956521,49.002723 63.677719,48.5647 62.685254,48.406143 61.20631,48.403587 c -1.380286,-0.0024 -2.260062,0.122027 -3.448161,0.487615 -2.579704,0.793797 -4.793649,2.447937 -6.327224,4.727357 -0.267198,0.397147 -0.862941,1.511882 -1.094471,2.047935 -0.05498,0.127297 -0.08821,0.179373 -0.07383,0.115724 z m -13.863112,-0.09258 c -0.007,-0.104383 0.148504,-0.859969 0.166123,-0.80711 0.0084,0.02519 -0.0245,0.232718 -0.0731,0.461173 -0.0486,0.228455 -0.09046,0.384126 -0.09303,0.345937 z m -2.168607,-0.793622 c -0.198016,-0.848961 -0.913074,-1.597646 -1.81561,-1.900993 -0.17641,-0.05929 -0.205576,-0.07807 -0.09389,-0.06046 0.251304,0.03963 0.782664,0.311543 1.072621,0.548889 0.144401,0.118201 0.366104,0.369741 0.492673,0.558978 0.226817,0.339119 0.446618,0.879989 0.417133,1.026451 -0.0083,0.04127 -0.04113,-0.03652 -0.07293,-0.172864 z m -5.218102,0.02984 c 0.03639,-0.26933 0.354593,-0.888282 0.599455,-1.166028 0.416775,-0.472748 1.261516,-0.902473 1.745221,-0.887804 0.195664,0.0059 0.194437,0.0068 -0.0548,0.039 -1.04156,0.134522 -1.921186,0.892325 -2.231271,1.922256 -0.06578,0.218494 -0.07828,0.238242 -0.0586,0.09258 z M 36.58511,54.76384 c -0.0018,-0.03819 0.02573,-0.173587 0.06116,-0.300885 0.03542,-0.127297 0.06586,-0.200203 0.06765,-0.162014 0.0018,0.03819 -0.02573,0.173587 -0.06116,0.300884 -0.03542,0.127297 -0.06586,0.200204 -0.06765,0.162015 z m 0.137492,-0.582306 c -0.005,-0.06818 0.30059,-1.171602 0.364332,-1.31558 0.06959,-0.157192 0.04454,-0.04912 -0.155555,0.671203 -0.181835,0.654568 -0.203208,0.720535 -0.208777,0.644377 z m -4.875668,-1.301959 c 0.05728,-0.01103 0.151021,-0.01103 0.208305,0 0.05728,0.01103 0.01042,0.02006 -0.104152,0.02006 -0.114568,0 -0.161436,-0.009 -0.104153,-0.02006 z m 5.310575,-0.254899 c 0.03518,-0.175115 0.402134,-1.201662 0.422329,-1.181467 0.0091,0.0091 -0.0879,0.306883 -0.215517,0.66177 -0.127621,0.354887 -0.220686,0.588751 -0.206812,0.519697 z m 7.430723,-15.848952 c -1.194501,-0.221195 -1.915359,-0.567513 -2.664102,-1.2799 -0.676562,-0.643712 -1.090782,-1.317794 -1.336302,-2.174635 -0.329396,-1.149559 -0.219055,-2.339866 0.318719,-3.438175 0.673116,-1.374723 1.897392,-2.303693 3.415535,-2.59168 0.462915,-0.08781 1.309599,-0.09021 1.754928,-0.005 1.832229,0.350704 3.291358,1.714342 3.772655,3.525756 0.105825,0.398285 0.122551,0.555308 0.125378,1.177088 0.0028,0.609367 -0.013,0.77981 -0.104657,1.131 -0.372897,1.428803 -1.26656,2.551076 -2.527904,3.174575 -0.68521,0.338708 -1.197808,0.46359 -1.990467,0.484929 -0.356432,0.0096 -0.700134,0.0078 -0.763783,-0.004 z m 9.270535,-4.256032 c -0.944677,-0.254429 -1.429079,-1.315461 -1.000742,-2.192018 0.158539,-0.324436 0.423947,-0.585882 0.74989,-0.738696 0.222096,-0.104126 0.324145,-0.122574 0.678053,-0.122574 0.386213,0 0.437837,0.01151 0.707551,0.157761 0.341738,0.185303 0.533752,0.389167 0.699611,0.74278 0.100103,0.213422 0.120405,0.323051 0.120405,0.650171 0,0.337042 -0.01855,0.431235 -0.129345,0.656858 -0.186714,0.380219 -0.558058,0.704528 -0.94276,0.82335 -0.350616,0.108295 -0.545304,0.113228 -0.882663,0.02237 z"
         id="path7" /><path
         style="fill:#f8cb28;stroke:#000000;stroke-width:0.46273183;stroke-dasharray:none"
         d="m 73.034806,61.056265 c -1.324975,-0.203764 -2.356092,-1.100935 -2.762994,-2.404073 -0.09212,-0.295033 -0.10796,-0.441028 -0.105443,-0.972088 0.0026,-0.541612 0.01872,-0.672221 0.121156,-0.979802 0.184199,-0.553078 0.42715,-0.945159 0.8439,-1.361908 0.651283,-0.651283 1.307097,-0.939527 2.227418,-0.978997 0.468005,-0.02007 0.619497,-0.0082 0.948944,0.07432 1.937687,0.485403 3.031616,2.477967 2.401314,4.373932 -0.24348,0.732394 -0.909648,1.513007 -1.59394,1.867774 -0.648553,0.336238 -1.434641,0.480143 -2.080355,0.38084 z M 79.41325,57.29218 c -1.075193,-0.35143 -1.435388,-1.685296 -0.681516,-2.523783 0.310706,-0.34558 0.63473,-0.48571 1.129409,-0.488434 0.331688,-0.0018 0.434513,0.01708 0.654908,0.120407 0.333737,0.156467 0.61785,0.44106 0.771926,0.77323 0.09894,0.213304 0.12127,0.32963 0.12127,0.631763 0,0.620216 -0.272731,1.076807 -0.816234,1.366491 -0.240821,0.128356 -0.348612,0.156899 -0.638116,0.168976 -0.208769,0.0087 -0.425801,-0.01078 -0.541647,-0.04865 z m -8.185175,-5.218177 c -0.875664,-0.126186 -1.899525,-0.582552 -2.75425,-1.227652 -1.838309,-1.387457 -3.558186,-2.107874 -5.809383,-2.433418 -0.638628,-0.09235 -2.463446,-0.07796 -3.124569,0.02463 -2.473287,0.383827 -4.663619,1.439742 -6.404175,3.087324 -0.221755,0.20991 -0.414524,0.370321 -0.428375,0.356471 -0.0925,-0.0925 1.132175,-1.825715 2.019056,-2.857472 3.61368,-4.203992 9.069267,-7.882278 16.206652,-10.92691 0.541765,-0.231103 1.039854,-0.431153 1.106864,-0.444555 0.294574,-0.05891 2.687608,1.333075 4.118055,2.395408 2.125637,1.578621 3.185343,4.205429 2.685684,6.657296 -0.381565,1.872373 -1.626606,3.600623 -3.272195,4.542157 -0.694841,0.397558 -1.493836,0.678256 -2.305227,0.80986 -0.454582,0.07373 -1.578926,0.08303 -2.038137,0.01686 z"
         id="path6" /><path
         style="fill:#ef5b47;stroke:#000000;stroke-width:0.46273183;stroke-dasharray:none"
         d="m 53.591619,94.338061 c -0.843839,-0.167134 -1.530422,-0.537164 -2.111426,-1.137942 -0.482411,-0.49883 -0.718672,-0.895701 -0.946252,-1.589511 -0.116959,-0.356567 -0.129403,-0.458578 -0.132694,-1.087813 -0.0031,-0.590613 0.01199,-0.748232 0.100906,-1.055016 0.371797,-1.282746 1.297339,-2.251296 2.557132,-2.675958 0.381509,-0.128601 0.51946,-0.150952 1.041523,-0.168745 0.946735,-0.03227 1.599955,0.146776 2.333105,0.639486 0.469105,0.31526 0.743916,0.588138 1.06501,1.057519 0.427972,0.625615 0.650083,1.36376 0.651449,2.16497 0.0026,1.528492 -0.82188,2.847756 -2.192784,3.508686 -0.231986,0.111843 -0.546775,0.236953 -0.699532,0.278023 -0.335443,0.09019 -1.343375,0.130287 -1.666437,0.0663 z m 1.620147,-0.138519 c 1.896853,-0.452512 3.166656,-2.401253 2.828271,-4.340489 -0.09918,-0.568393 -0.281484,-1.025631 -0.59946,-1.503519 -0.742524,-1.115945 -2.058024,-1.769466 -3.386059,-1.682144 -1.694526,0.11142 -3.066738,1.23999 -3.498486,2.877317 -0.116227,0.440771 -0.139064,1.282274 -0.04648,1.712726 0.350163,1.628031 1.73371,2.884769 3.335804,3.03006 0.472098,0.04281 0.923105,0.0118 1.366411,-0.09395 z M 44.870815,88.898828 c -0.38347,-0.103121 -0.692853,-0.289888 -1.028294,-0.620758 -0.415374,-0.409714 -0.645513,-0.88782 -0.713183,-1.481613 -0.07636,-0.670037 0.223516,-1.452829 0.742554,-1.938364 0.49635,-0.464311 0.97283,-0.654244 1.638967,-0.653321 0.700731,9.7e-4 1.232696,0.211788 1.692302,0.670661 1.313704,1.311608 0.749672,3.497741 -1.037901,4.0228 -0.312093,0.09167 -0.954672,0.09197 -1.294445,5.95e-4 z m 14.622768,-3.496342 c -4.834211,-0.319691 -9.557685,-2.080046 -13.445446,-5.010879 -0.984448,-0.742138 -1.648443,-1.324718 -2.642715,-2.318682 -0.964519,-0.96422 -1.964904,-2.103176 -1.964904,-2.237078 0,-0.03812 0.05472,0.01171 0.121593,0.110739 0.230465,0.341258 1.167537,1.389118 1.874185,2.095766 2.762521,2.762521 5.960322,4.748544 9.699767,6.024127 1.698963,0.579543 3.632343,0.998266 5.593736,1.211466 0.882467,0.09592 4.254695,0.08128 5.13818,-0.02231 3.212275,-0.376648 5.878882,-1.169773 8.679358,-2.581486 1.785009,-0.899819 3.813489,-2.248467 4.430832,-2.945867 0.871109,-0.984074 1.413174,-2.081763 1.664285,-3.370197 0.11309,-0.580259 0.112328,-1.834188 -0.0015,-2.405396 -0.16415,-0.824006 -0.47172,-1.633912 -0.862011,-2.269885 -0.734997,-1.197667 -1.691318,-2.093243 -2.863603,-2.681709 -1.26574,-0.635379 -2.767173,-0.853365 -4.153491,-0.603025 -0.749358,0.135318 -1.473705,0.454139 -2.149191,0.945964 -0.861123,0.62699 -1.53841,1.047353 -2.245061,1.393412 -2.603491,1.274979 -5.527273,1.542751 -8.357453,0.765409 -1.912822,-0.525378 -3.786357,-1.626244 -5.20549,-3.058681 -0.495541,-0.500186 -0.928679,-0.996897 -0.869307,-0.996897 0.02338,0 0.233945,0.218004 0.467925,0.484453 1.822395,2.075288 4.388552,3.437467 7.252289,3.849696 0.73013,0.1051 2.33275,0.107396 3.05671,0.0044 1.283878,-0.182693 2.45459,-0.534409 3.562747,-1.070354 0.817617,-0.39543 1.332055,-0.707864 2.059901,-1.251041 0.913106,-0.681434 1.82445,-1.0695 2.792262,-1.188992 0.521656,-0.06441 1.53567,-0.02806 2.059665,0.07382 1.506169,0.292862 2.922547,1.119436 3.88787,2.268894 0.91005,1.083641 1.419069,2.148421 1.637414,3.425187 0.130514,0.763175 0.100136,1.895991 -0.07014,2.615646 -0.295279,1.24795 -0.88157,2.341061 -1.727472,3.220786 -0.479854,0.49904 -1.879657,1.48092 -3.158068,2.215199 -3.917432,2.25005 -8.189742,3.378555 -12.689045,3.351732 -0.547378,-0.0033 -1.255614,-0.02315 -1.573857,-0.0442 z"
         id="path5" /><path
         style="fill:#ef5824;stroke:#000000;stroke-width:0.46273183;stroke-dasharray:none"
         d="m 54.204961,94.311055 c 0.03182,-0.01284 0.0839,-0.01284 0.115724,0 0.03183,0.01284 0.0058,0.02335 -0.05786,0.02335 -0.06365,0 -0.08969,-0.01051 -0.05786,-0.02335 z M 70.811466,82.448938 c -2.134255,-0.922057 -3.814218,-1.731548 -5.421007,-2.612114 -2.785182,-1.526358 -5.560674,-3.417296 -7.540168,-5.137102 -0.686638,-0.596559 -1.832748,-1.673586 -1.911905,-1.796664 -0.04321,-0.06718 -0.313761,-0.382737 -0.601227,-0.701232 -1.348698,-1.494275 -2.068108,-2.484429 -3.219058,-4.430522 -0.0698,-0.11802 -0.02823,-0.0866 0.153092,0.115725 1.574919,1.75733 3.586221,3.024542 5.738988,3.615824 2.83018,0.777342 5.753962,0.50957 8.357453,-0.765409 0.706651,-0.346059 1.383938,-0.766422 2.245061,-1.393412 1.130285,-0.822967 2.431535,-1.164281 3.888353,-1.019901 2.24539,0.222532 4.063232,1.379336 5.277932,3.358671 0.390291,0.635973 0.697861,1.445879 0.862011,2.269885 0.113791,0.571208 0.114553,1.825137 0.0015,2.405396 -0.251111,1.288434 -0.793176,2.386123 -1.664285,3.370197 -0.594461,0.671551 -2.626796,2.033315 -4.300562,2.881587 -0.373892,0.18949 -0.686349,0.343291 -0.694349,0.341781 -0.008,-0.0015 -0.535306,-0.227731 -1.171792,-0.50271 z"
         id="path4" /><path
         style="fill:#3963ae;stroke:#000000;stroke-width:0.46273183;stroke-dasharray:none"
         d="m 40.980921,75.312651 c -2.586373,-3.477354 -4.233643,-7.571407 -4.766443,-11.846308 -0.141767,-1.137461 -0.189503,-1.936201 -0.189503,-3.170859 0,-3.958436 0.818861,-7.506632 2.546072,-11.032357 0.931061,-1.900557 1.988696,-3.532849 3.335965,-5.148535 0.560118,-0.671711 1.973167,-2.126767 2.065367,-2.126767 0.08802,0 1.153931,0.667735 1.770758,1.10928 2.350389,1.682491 4.298568,3.814894 5.78372,6.330641 0.351973,0.596217 1.162419,2.223629 1.161669,2.332684 -6.45e-4,0.0939 -0.321487,0.565998 -0.672671,0.989799 -0.949564,1.145912 -1.823775,2.903846 -2.218558,4.461254 -0.419357,1.654354 -0.461189,3.606681 -0.113395,5.292262 0.302757,1.467311 0.892303,2.850945 1.789355,4.199523 0.435163,0.654199 0.471343,0.72483 0.398558,0.778051 -0.04403,0.0322 -0.100882,0.05854 -0.126342,0.05854 -0.02546,0 -0.0084,-0.02774 0.03802,-0.06165 0.07857,-0.05745 0.05749,-0.100754 -0.309794,-0.636486 -1.104752,-1.611411 -1.757824,-3.30625 -2.031947,-5.273267 -0.09383,-0.673292 -0.08112,-2.342711 0.02343,-3.078278 0.173941,-1.223723 0.529779,-2.393139 1.075983,-3.536084 0.162914,-0.340901 0.296207,-0.634445 0.296207,-0.65232 0,-0.01788 -0.411402,-0.04631 -0.914226,-0.06319 -3.965324,-0.133113 -8.246637,-1.137863 -11.731663,-2.753218 -0.325403,-0.150829 -0.411892,-0.174759 -0.452926,-0.125316 -0.08591,0.103511 -0.676302,1.950058 -0.873688,2.732586 -0.527985,2.093167 -0.760473,3.980731 -0.761143,6.179703 -4.03e-4,1.323958 0.04597,2.079038 0.20123,3.276724 0.494553,3.814947 1.86175,7.463965 3.992744,10.656539 0.394563,0.591118 1.084758,1.527567 1.12587,1.527567 0.01644,0 0.0605,-0.03645 0.09792,-0.08101 0.06005,-0.0715 0.06019,-0.06773 0.0011,0.03218 -0.03679,0.06225 -0.08748,0.12005 -0.112639,0.128437 -0.02516,0.0084 -0.218243,-0.216671 -0.429072,-0.500128 z m 0.644757,0.142778 c 0.02725,-0.05092 0.05996,-0.09258 0.07269,-0.09258 0.01273,0 8.49e-4,0.04166 -0.0264,0.09258 -0.02725,0.05092 -0.05996,0.09258 -0.07269,0.09258 -0.01273,0 -8.48e-4,-0.04166 0.0264,-0.09258 z m 0.132924,-0.208304 c 0.025,-0.05092 0.07937,-0.134241 0.120832,-0.18516 l 0.07538,-0.09258 -0.04545,0.09258 c -0.025,0.05092 -0.07937,0.134241 -0.120832,0.18516 l -0.07538,0.09258 z m 0.561424,-0.856364 c 0.05439,-0.07638 0.1093,-0.138869 0.122029,-0.138869 0.01273,0 -0.02135,0.06249 -0.07574,0.138869 -0.05439,0.07638 -0.109299,0.13887 -0.122029,0.13887 -0.01273,0 0.02135,-0.06249 0.07574,-0.13887 z m 0.284212,-0.395554 c 0.0831,-0.115718 0.182191,-0.235493 0.220199,-0.266167 0.03801,-0.03068 -0.02078,0.064 -0.130635,0.210395 -0.236379,0.314992 -0.307548,0.359309 -0.08956,0.05577 z m 0.409628,-0.529601 c 0.08038,-0.101485 0.170316,-0.199459 0.199864,-0.217721 0.02955,-0.01826 -0.02656,0.06477 -0.124682,0.184518 -0.09812,0.119746 -0.188061,0.21772 -0.199864,0.21772 -0.0118,0 0.04431,-0.08303 0.124682,-0.184517 z m 0.231959,-0.292867 c 0,-0.008 0.0677,-0.07567 0.150442,-0.150442 l 0.150442,-0.135958 -0.135958,0.150443 c -0.126731,0.140233 -0.164926,0.171719 -0.164926,0.135957 z m 0.460964,-0.506277 c 0.191824,-0.204378 0.233384,-0.241128 0.233384,-0.20637 0,0.0074 -0.09894,0.106374 -0.219877,0.219877 l -0.219877,0.20637 z m 0.626848,-0.682776 c 0.228074,-0.229135 0.425095,-0.416609 0.437824,-0.416609 0.01273,0 -0.16346,0.187474 -0.391534,0.416609 -0.228073,0.229135 -0.425094,0.416609 -0.437824,0.416609 -0.01273,0 0.163461,-0.187474 0.391534,-0.416609 z m 0.66927,-0.613341 c 0.191823,-0.204379 0.233384,-0.241129 0.233384,-0.20637 0,0.0074 -0.09895,0.106373 -0.219877,0.219877 l -0.219877,0.20637 z m 0.279674,-0.234362 c 0,-0.008 0.0677,-0.07567 0.150442,-0.150442 l 0.150442,-0.135958 -0.135958,0.150443 c -0.126731,0.140233 -0.164926,0.171719 -0.164926,0.135957 z m 0.338401,-0.295349 c 0.03891,-0.06296 0.402237,-0.35611 0.402237,-0.324546 0,0.0118 -0.09797,0.101741 -0.21772,0.199864 -0.119746,0.09812 -0.202779,0.15423 -0.184517,0.124682 z m 0.481154,-0.389294 c 0.06289,-0.07792 0.476562,-0.382456 0.476562,-0.350833 0,0.01125 -0.119775,0.110342 -0.266167,0.220199 -0.146392,0.109856 -0.24107,0.168642 -0.210395,0.130634 z m 0.522852,-0.382381 c 0,-0.01273 0.06249,-0.06764 0.13887,-0.122029 0.07638,-0.05439 0.138869,-0.08847 0.138869,-0.07574 0,0.01273 -0.06249,0.06764 -0.138869,0.122029 -0.07638,0.05439 -0.13887,0.08847 -0.13887,0.07574 z m 0.810073,-0.562621 c 0.05092,-0.04146 0.134241,-0.09583 0.18516,-0.120832 l 0.09258,-0.04545 -0.09258,0.07538 c -0.05092,0.04146 -0.134241,0.09583 -0.18516,0.120832 l -0.09258,0.04545 z m 0.300885,-0.181064 c 0,-0.01273 0.04166,-0.04544 0.09258,-0.07269 0.05092,-0.02725 0.09258,-0.03913 0.09258,-0.0264 0,0.01273 -0.04166,0.04544 -0.09258,0.07269 -0.05092,0.02725 -0.09258,0.03913 -0.09258,0.0264 z m 0.231449,-0.13887 c 0,-0.01273 0.04166,-0.04544 0.09258,-0.07269 0.05092,-0.02725 0.09258,-0.03913 0.09258,-0.0264 0,0.01273 -0.04166,0.04544 -0.09258,0.07269 -0.05092,0.02725 -0.09258,0.03913 -0.09258,0.0264 z m 0.32403,-0.18604 c 0,-0.01273 0.06249,-0.05546 0.138869,-0.09496 0.07638,-0.0395 0.13887,-0.0614 0.13887,-0.04867 0,0.01273 -0.06249,0.05546 -0.13887,0.09496 -0.07638,0.0395 -0.138869,0.0614 -0.138869,0.04867 z M 29.744982,68.860068 C 28.243236,68.587561 27.087135,67.55063 26.647334,66.081723 26.539778,65.722492 26.522157,65.579045 26.519393,65.0402 c -0.0023,-0.447941 0.01954,-0.71592 0.07712,-0.946269 0.249828,-0.999512 0.955086,-1.94523 1.836544,-2.462719 1.023575,-0.600924 2.367468,-0.694387 3.458785,-0.240548 0.462257,0.192236 0.859138,0.455588 1.233559,0.818533 1.721909,1.669137 1.549466,4.471141 -0.364215,5.918074 -0.858951,0.649452 -1.977668,0.921249 -3.0162,0.732797 z m 1.68863,-0.160003 c 0.876423,-0.25264 1.642089,-0.800826 2.137517,-1.530376 0.65509,-0.964662 0.83872,-2.250937 0.479131,-3.356172 -0.553908,-1.702491 -2.261408,-2.804952 -4.044111,-2.611112 -2.062461,0.224259 -3.528412,1.958717 -3.411136,4.035925 0.05548,0.982652 0.445378,1.83451 1.15114,2.515033 0.584028,0.563142 1.308995,0.926686 2.098743,1.052441 0.329161,0.05241 1.253491,-0.0091 1.588716,-0.105739 z m 18.20022,-0.396427 c 0.06365,-0.03639 0.136555,-0.06615 0.162015,-0.06615 0.02546,0 -0.0058,0.02977 -0.06943,0.06615 -0.06365,0.03638 -0.136555,0.06615 -0.162015,0.06615 -0.02546,0 0.0058,-0.02977 0.06943,-0.06615 z m 0.370319,-0.162014 c 0.03819,-0.02468 0.09027,-0.04487 0.115725,-0.04487 0.02546,0 0.01504,0.02019 -0.02314,0.04487 -0.03819,0.02468 -0.09026,0.04487 -0.115725,0.04487 -0.02546,0 -0.01504,-0.02019 0.02314,-0.04487 z m 0.32403,-0.13887 c 0.03819,-0.02468 0.09027,-0.04487 0.115725,-0.04487 0.02546,0 0.01504,0.02019 -0.02314,0.04487 -0.03819,0.02468 -0.09027,0.04487 -0.115725,0.04487 -0.02546,0 -0.01504,-0.02019 0.02314,-0.04487 z m 0.370319,-0.13887 c 0.03819,-0.02468 0.09026,-0.04487 0.115725,-0.04487 0.02546,0 0.01504,0.02019 -0.02314,0.04487 -0.03819,0.02468 -0.09027,0.04487 -0.115725,0.04487 -0.02546,0 -0.01504,-0.02019 0.02314,-0.04487 z m 0.324029,-0.108356 c 0,-0.02742 0.555497,-0.216916 0.62233,-0.212291 0.02688,0.0019 -0.05528,0.04047 -0.182575,0.08581 -0.35145,0.12516 -0.439755,0.150559 -0.439755,0.126484 z M 31.141013,58.188274 c -0.91826,-0.184313 -1.667149,-0.829812 -2.012725,-1.734852 -0.146639,-0.384038 -0.180887,-1.129274 -0.07126,-1.550712 0.240816,-0.925804 0.956767,-1.651383 1.897672,-1.923192 0.171046,-0.04941 0.43643,-0.0799 0.695506,-0.0799 0.764166,0 1.387941,0.267827 1.914278,0.821923 0.813617,0.856528 0.981299,2.052266 0.43436,3.097426 -0.214091,0.409111 -0.672152,0.876245 -1.061132,1.08215 -0.533195,0.282244 -1.250227,0.396843 -1.796695,0.287156 z m 1.123417,-0.115059 c 1.152393,-0.2717 1.958385,-1.300657 1.957729,-2.499302 -4.11e-4,-0.750726 -0.228308,-1.313241 -0.743023,-1.833993 -1.014153,-1.02605 -2.613659,-1.034536 -3.639284,-0.01931 -0.60537,0.599233 -0.869016,1.363416 -0.754482,2.186886 0.212737,1.52952 1.669168,2.521706 3.17906,2.165719 z"
         id="path3" /><path
         style="fill:#e82d28;stroke:#000000;stroke-width:0.46273183;stroke-dasharray:none"
         d="m 53.337025,94.202698 c -1.126804,-0.279193 -2.106853,-1.102697 -2.576709,-2.165124 -0.278319,-0.629329 -0.381091,-1.570385 -0.24884,-2.278563 0.266575,-1.427452 1.398581,-2.615162 2.848694,-2.988873 0.484556,-0.124875 1.36257,-0.116222 1.866595,0.0184 0.758497,0.202586 1.466513,0.646798 1.959065,1.229126 0.320686,0.379137 0.684031,1.089143 0.808223,1.579336 0.119712,0.472507 0.108503,1.359995 -0.02338,1.851596 -0.372685,1.389144 -1.425067,2.426523 -2.794735,2.754892 -0.505257,0.121132 -1.348308,0.120772 -1.838908,-7.87e-4 z m 5.878818,-8.892476 c -3.206661,-0.253114 -6.229607,-1.090772 -9.211692,-2.552559 -1.112011,-0.545096 -1.640833,-0.848117 -2.684814,-1.538428 -1.449828,-0.958668 -2.629315,-1.923614 -3.885525,-3.178771 -0.719643,-0.71904 -1.826658,-1.966285 -1.9138,-2.156229 -0.04046,-0.08819 -0.0036,-0.175902 0.248962,-0.591877 1.948889,-3.210363 5.161906,-5.909625 8.66947,-7.283237 0.955827,-0.374316 1.46204,-0.535626 1.514921,-0.482745 0.02373,0.02373 0.266844,0.416622 0.54026,0.8731 0.820218,1.369387 1.654462,2.484931 2.843534,3.80235 0.287466,0.318495 0.558018,0.634049 0.601227,0.701232 0.154672,0.240492 1.859479,1.779384 2.860848,2.582425 3.313503,2.657241 7.462454,5.048959 12.278399,7.078047 0.477365,0.201126 0.867936,0.378063 0.867936,0.393191 0,0.01513 -0.265589,0.144682 -0.590197,0.287896 -2.592104,1.14361 -5.3785,1.842124 -8.248857,2.067884 -0.71379,0.05614 -3.168775,0.0547 -3.890672,-0.0023 z"
         id="path2" /><path
         style="fill:#184896;stroke:#000000;stroke-width:0.46273183;stroke-dasharray:none"
         d="m 41.007902,75.212407 c -2.541873,-3.431286 -4.154111,-7.429647 -4.702948,-11.663344 -0.155262,-1.197686 -0.201633,-1.952766 -0.20123,-3.276724 6.7e-4,-2.198972 0.233158,-4.086536 0.761143,-6.179703 0.197386,-0.782528 0.787782,-2.629075 0.873688,-2.732586 0.04103,-0.04944 0.127523,-0.02551 0.452926,0.125316 3.485026,1.615355 7.766339,2.620105 11.731663,2.753218 0.502824,0.01688 0.914226,0.04531 0.914226,0.06319 0,0.01787 -0.133293,0.311419 -0.296207,0.65232 -0.546204,1.142945 -0.902042,2.312361 -1.075983,3.536084 -0.104554,0.735567 -0.117262,2.404986 -0.02343,3.078278 0.273944,1.965736 0.927306,3.662008 2.030092,5.270567 0.215735,0.314677 0.374746,0.588728 0.353359,0.609001 -0.02139,0.02027 -0.22636,0.09924 -0.455495,0.175492 -1.032081,0.343436 -2.39791,0.963572 -3.351808,1.521842 -2.53751,1.485079 -4.772807,3.67295 -6.292727,6.159215 -0.143828,0.235272 -0.277252,0.427954 -0.296498,0.428181 -0.01925,2.28e-4 -0.208592,-0.233928 -0.420769,-0.520347 z M 29.844896,68.805804 c -1.248669,-0.198831 -2.304976,-0.978628 -2.885613,-2.130245 -0.211682,-0.419843 -0.334099,-0.902839 -0.36427,-1.437229 -0.07226,-1.279849 0.437765,-2.438696 1.416139,-3.217671 1.916434,-1.525853 4.733082,-0.905165 5.825224,1.283669 0.281401,0.563973 0.387031,1.033011 0.387579,1.721 0.0014,1.722293 -1.114319,3.191602 -2.790343,3.674737 -0.335225,0.09663 -1.259555,0.158153 -1.588716,0.105739 z m 1.110958,-10.749345 c -1.014731,-0.292097 -1.725851,-1.109089 -1.870484,-2.148963 -0.114534,-0.82347 0.149112,-1.587653 0.754482,-2.186886 1.025625,-1.015226 2.625131,-1.00674 3.639284,0.01931 0.514715,0.520752 0.742612,1.083267 0.743023,1.833993 5.44e-4,0.993643 -0.533815,1.859168 -1.425395,2.308777 -0.513105,0.25875 -1.290702,0.332149 -1.84091,0.173769 z"
         id="path1" /></g></g></svg>
