<?xml version="1.0" standalone="no"?>
<!DOCTYPE svg PUBLIC "-//W3C//DTD SVG 1.1//EN" "http://www.w3.org/Graphics/SVG/1.1/DTD/svg11.dtd" >
<svg xmlns="http://www.w3.org/2000/svg" xmlns:xlink="http://www.w3.org/1999/xlink" version="1.1">
<metadata>
Created by FontForge 20190801 at Fri Apr 28 10:17:06 2023
 By root
Copyright (c) 2023 by Khurasan. All rights reserved.
</metadata>
<defs>
<font id="Cakecafe" horiz-adv-x="396" >
  <font-face 
    font-family="Cakecafe"
    font-weight="400"
    font-stretch="normal"
    units-per-em="1000"
    panose-1="0 0 0 0 0 0 0 0 0 0"
    ascent="800"
    descent="-200"
    x-height="837"
    cap-height="1110"
    bbox="-1004 -53 3394 1185.07"
    underline-thickness="50"
    underline-position="-100"
    unicode-range="U+000D-E005"
  />
<missing-glyph horiz-adv-x="438" 
 />
    <glyph glyph-name="exclamdown" unicode="&#x2a;&#x31;" horiz-adv-x="0" 
d="M421 93q-238 0 -473.5 -21t-466.5 -56q-21 -3 -53 -9t-69 -13.5t-76.5 -15t-75 -14t-65 -10.5t-45.5 -4q-28 0 -47.5 8.5t-31.5 22.5t-17 32t-5 38q0 32 23.5 55.5t65.5 34.5q33 9 91 16.5t132 14t160.5 11.5t176.5 8.5t179.5 6t169 4.5t146 2.5t110.5 0.5q20 0 62 0.5
t93 -0.5t105.5 -4.5t99 -10.5t73 -19t28.5 -30q0 -20 -16.5 -31t-43 -16t-59.5 -6t-65 0t-60.5 3t-45.5 2zM922 88q-17 2 -34.5 4.5t-31.5 8.5t-22.5 15.5t-8.5 24.5q0 23 20.5 38.5t49.5 15.5q20 0 42.5 -2.5t41.5 -8.5t31.5 -17t12.5 -28q0 -16 -9.5 -26t-24 -15.5
t-32.5 -7.5t-35 -2z" />
    <glyph glyph-name="c_a" unicode="ca" horiz-adv-x="720" 
d="M327 298q-66 0 -120.5 26t-92.5 69.5t-59 101t-21 120.5q0 67 23 134.5t65 121.5t101.5 88t131.5 34q27 0 58 -7t57 -22t43.5 -38t17.5 -56q0 -23 -11 -41t-37 -18q-15 0 -24.5 8t-20 17t-24.5 17t-39 8q-46 0 -83 -22t-63.5 -56.5t-40.5 -77t-14 -84.5q0 -37 9.5 -71
t29.5 -60.5t50.5 -42t72.5 -15.5q34 0 71.5 11t70.5 24t57 24t32 11q19 0 32.5 -12.5t13.5 -32.5q0 -22 -16.5 -42.5t-42.5 -38t-58 -32t-64 -25t-60 -16t-45 -5.5zM601 784q8 7 16.5 15t22.5 8q17 0 26.5 -10.5t9.5 -24.5q0 -26 -8 -52t-8 -54q0 -33 6.5 -47.5t14.5 -21
t14.5 -10.5t6.5 -17q0 -17 -12.5 -26.5t-29.5 -9.5q-31 0 -46.5 16t-31.5 36q-6 -13 -15.5 -28t-22 -27.5t-28 -21t-33.5 -8.5q-26 0 -43 11.5t-27.5 29.5t-15 39t-4.5 40q0 30 9.5 60t28.5 55t47 40.5t66 15.5q16 0 29.5 -3t27.5 -5zM565 708q-7 2 -10.5 2.5t-8.5 0.5
q-19 0 -31.5 -11t-20 -26.5t-10.5 -33.5t-3 -31q0 -20 3.5 -28.5t9.5 -7.5t13 10t15 24q14 24 22.5 49.5t20.5 51.5z" />
    <glyph glyph-name="c_i" unicode="ci" horiz-adv-x="669" 
d="M327 298q-66 0 -120.5 26t-92.5 69.5t-59 101t-21 120.5q0 67 23 134.5t65 121.5t101.5 88t131.5 34q27 0 58 -7t57 -22t43.5 -38t17.5 -56q0 -23 -11 -41t-37 -18q-15 0 -24.5 8t-20 17t-24.5 17t-39 8q-46 0 -83 -22t-63.5 -56.5t-40.5 -77t-14 -84.5q0 -37 9.5 -71
t29.5 -60.5t50.5 -42t72.5 -15.5q34 0 71.5 11t70.5 24t57 24t32 11q19 0 32.5 -12.5t13.5 -32.5q0 -22 -16.5 -42.5t-42.5 -38t-58 -32t-64 -25t-60 -16t-45 -5.5zM499 715q2 15 10 39.5t21.5 47t31 37.5t39.5 11q51 -11 50 -54q-2 -12 -7 -26.5t-10.5 -29t-10.5 -27
t-7 -20.5q-5 -34 -2.5 -68t-4.5 -63q-2 -14 -14.5 -23.5t-30.5 -6.5q-29 6 -44 28t-21 49.5t-5 56t5 49.5zM712 915q-5 -23 -23 -36t-49 -6q-14 3 -27.5 10t-23.5 17t-15.5 22.5t-2.5 25.5q2 10 10 20t19 16.5t24 9.5t27 0q35 -7 50.5 -30.5t10.5 -48.5z" />
    <glyph glyph-name="c_u" unicode="cu" horiz-adv-x="729" 
d="M327 298q-66 0 -120.5 26t-92.5 69.5t-59 101t-21 120.5q0 67 23 134.5t65 121.5t101.5 88t131.5 34q27 0 58 -7t57 -22t43.5 -38t17.5 -56q0 -23 -11 -41t-37 -18q-15 0 -24.5 8t-20 17t-24.5 17t-39 8q-46 0 -83 -22t-63.5 -56.5t-40.5 -77t-14 -84.5q0 -37 9.5 -71
t29.5 -60.5t50.5 -42t72.5 -15.5q34 0 71.5 11t70.5 24t57 24t32 11q19 0 32.5 -12.5t13.5 -32.5q0 -22 -16.5 -42.5t-42.5 -38t-58 -32t-64 -25t-60 -16t-45 -5.5zM564 619q-16 -17 -32.5 -40t-35.5 -43.5t-41.5 -34.5t-49.5 -14q-30 0 -51 13.5t-34 35.5t-19 48t-6 52
q0 21 5.5 51t17.5 58.5t31 48.5t47 20q17 0 31.5 -13.5t14.5 -32.5q0 -14 -4.5 -34t-11.5 -41q-11 -50 -9 -70.5t13 -19t28.5 21t36.5 50.5q12 23 25 46t24 41q15 25 30.5 34t29.5 9q19 0 29 -9t14 -23t4.5 -30t0.5 -29q0 -41 9.5 -72.5t21.5 -54.5t21.5 -38.5t9.5 -22.5
q0 -14 -13 -25t-28 -11q-23 0 -40 14.5t-30 35t-22.5 42.5t-16.5 37z" />
    <glyph glyph-name="c_e" unicode="ce" horiz-adv-x="645" 
d="M327 298q-66 0 -120.5 26t-92.5 69.5t-59 101t-21 120.5q0 67 23 134.5t65 121.5t101.5 88t131.5 34q27 0 58 -7t57 -22t43.5 -38t17.5 -56q0 -23 -11 -41t-37 -18q-15 0 -24.5 8t-20 17t-24.5 17t-39 8q-46 0 -83 -22t-63.5 -56.5t-40.5 -77t-14 -84.5q0 -37 9.5 -71
t29.5 -60.5t50.5 -42t72.5 -15.5q34 0 71.5 11t70.5 24t57 24t32 11q19 0 32.5 -12.5t13.5 -32.5q0 -22 -16.5 -42.5t-42.5 -38t-58 -32t-64 -25t-60 -16t-45 -5.5zM478 715q-26 0 -36 -27q-6 -14 -8.5 -32t0.5 -34.5t14 -28t32 -11.5q17 0 31.5 4.5t27 10.5t22 10.5
t15.5 4.5q10 0 18.5 -7.5t8.5 -15.5q0 -20 -12 -34t-32 -23q-37 -17 -74.5 -19t-68 11t-49.5 39.5t-19 66.5q0 26 9.5 54t27 51t42.5 37.5t57 14.5q18 0 36.5 -6t33.5 -16.5t24.5 -25t9.5 -31.5t-7.5 -32t-20 -26.5t-29 -18.5t-33.5 -7q-20 0 -32 10.5t-12 28.5q0 14 8 21
t22 10q17 5 15.5 13t-21.5 8z" />
    <glyph glyph-name="c_o" unicode="co" horiz-adv-x="648" 
d="M474 795q8 0 17.5 -1.5t17.5 -5.5t13.5 -9.5t5.5 -12.5q0 -9 -5.5 -13t-14.5 -8q-18 -5 -34 -19t-27.5 -32.5t-18.5 -37.5t-7 -34q0 -10 4 -21t12 -20t19 -14.5t25 -5.5q11 0 23.5 6.5t23 16t17.5 20t7 18.5q0 13 -12 21.5t-27 15.5t-27 14.5t-12 19.5t11.5 21.5
t27.5 9.5q21 0 40.5 -7.5t34 -19.5t23 -28.5t8.5 -34.5q0 -24 -12.5 -48t-33.5 -43.5t-48 -31.5t-56 -12q-50 0 -80 22t-43.5 55t-10.5 71t20.5 71t47.5 55t71 22zM327 298q-66 0 -120.5 26t-92.5 69.5t-59 101t-21 120.5q0 67 23 134.5t65 121.5t101.5 88t131.5 34
q27 0 58 -7t57 -22t43.5 -38t17.5 -56q0 -23 -11 -41t-37 -18q-15 0 -24.5 8t-20 17t-24.5 17t-39 8q-46 0 -83 -22t-63.5 -56.5t-40.5 -77t-14 -84.5q0 -37 9.5 -71t29.5 -60.5t50.5 -42t72.5 -15.5q34 0 71.5 11t70.5 24t57 24t32 11q19 0 32.5 -12.5t13.5 -32.5
q0 -22 -16.5 -42.5t-42.5 -38t-58 -32t-64 -25t-60 -16t-45 -5.5z" />
    <glyph glyph-name="noname" unicode="Cakecafe" horiz-adv-x="3436" 
d="M834 983q0 -16 -5 -32t-14.5 -28.5t-22.5 -20.5t-29 -8t-23.5 7t-12.5 17t-9 22t-14 22t-28.5 17t-50.5 7q-65 0 -125.5 -34t-110.5 -89.5t-87 -126t-57 -144.5t-19.5 -144.5t26.5 -126t79.5 -89.5t139.5 -34q60 0 104 21.5t79.5 48t65.5 48t61 21.5q28 0 49 -21t21 -50
q0 -34 -19 -64.5t-50 -56.5t-70 -47.5t-79.5 -36t-78 -22.5t-65.5 -8q-134 0 -223 47.5t-139 125t-63.5 176.5t4.5 202.5t65.5 202.5t118.5 176.5t164 125t202 47.5q31 0 68.5 -9t70.5 -28t55 -47t22 -67zM982 869q21 0 34 -16t13 -37q0 -38 -11 -78t-11 -81q0 -50 8.5 -72
t19 -32t19.5 -16.5t9 -25.5q0 -26 -16.5 -39.5t-39.5 -13.5q-21 0 -36 6.5t-27 18t-22 26t-22 30.5q-8 -20 -20.5 -43.5t-29 -43t-37.5 -32.5t-46 -13q-34 0 -57 17.5t-37.5 44t-20.5 58t-6 59.5q0 45 13 91.5t38.5 84t64 61t89.5 23.5q20 0 38 -5t38 -7q11 13 23.5 24
t31.5 11zM855 724q-26 0 -43 -16.5t-27.5 -40.5t-15 -50.5t-4.5 -45.5q0 -30 5 -43t13 -11.5t18 15.5t20 36q19 37 30 75t27 76q-15 5 -23 5zM1399 846q22 0 35.5 -14t13.5 -33q0 -18 -17.5 -42.5t-41 -49.5t-48 -48t-37.5 -38q12 -5 35 -12t45 -16.5t38.5 -22t16.5 -27.5
q0 -17 -11 -30t-31 -13q-36 0 -72.5 12.5t-71.5 24.5q-7 2 -12.5 2t-5.5 -12q0 -43 4.5 -86.5t9.5 -85.5q1 -11 5.5 -22t9 -21.5t8.5 -21t4 -21.5q0 -17 -14 -30t-30 -13q-27 0 -46.5 27t-33 69.5t-21.5 93.5t-12 99t-5.5 86.5t-1.5 55.5q0 20 2 57.5t7.5 82.5t15 92t24 85
t35 62.5t48.5 24.5q18 0 33 -13.5t15 -32.5q0 -10 -2.5 -18.5t-4.5 -15.5q-16 -48 -24 -98.5t-13 -101.5q-2 -10 -2.5 -18.5t1 -13t6.5 -3t15 11.5l28.5 28.5t33 29t35 22t34.5 8.5zM1629 701q-8 -22 -12 -51t0.5 -55t20 -44t46.5 -18q24 0 45.5 7t39.5 15.5t32 15.5t24 7
q15 0 26 -11.5t11 -23.5q0 -32 -17.5 -54.5t-45.5 -36.5q-54 -27 -108 -30t-98 17t-71.5 62.5t-27.5 106.5q0 42 13.5 86t39 80.5t61.5 60t81 23.5q26 0 53 -9.5t49 -26.5t36 -40.5t14 -50.5q0 -26 -11 -49.5t-29.5 -41.5t-42 -29t-48.5 -11q-27 0 -44 15.5t-17 44.5
q0 24 11.5 34.5t28.5 15.5q27 9 24.5 21t-31.5 12q-22 0 -33.5 -11.5t-19.5 -30.5zM1377 13q-21 -3 -53.5 -9t-69.5 -13.5t-76.5 -15t-75 -14t-64.5 -10.5t-45 -4q-29 0 -49 8.5t-32 22.5t-17.5 32t-5.5 38q0 32 24 56t67 35q33 9 90.5 16.5t132 14t161 11.5t176.5 8.5
t179.5 6t170 4.5t147 2.5t110.5 0.5q20 0 62 0.5t93.5 -0.5t105.5 -4.5t99 -10.5t73.5 -19t28.5 -30q0 -20 -16.5 -31t-43 -16.5t-59.5 -6t-65.5 0.5t-61 3t-45.5 2q-238 0 -474.5 -21.5t-466.5 -56.5zM2723 139q0 23 20.5 38t51.5 15q20 0 42.5 -2.5t41 -8.5t31 -17
t12.5 -27t-9.5 -26t-24.5 -15.5t-33 -7.5t-35 -2q-17 2 -34.5 4.5t-31.5 8t-22.5 15t-8.5 25.5zM1930 613q0 67 23 134.5t65.5 122t102 88.5t132.5 34q27 0 57.5 -7t57 -22t44 -38t17.5 -56q0 -23 -11 -41t-37 -18q-16 0 -25.5 8t-19.5 17t-24.5 17t-39.5 8q-46 0 -83 -22
t-63.5 -56.5t-40.5 -77t-14 -84.5q0 -37 9.5 -71.5t30 -61t51 -42.5t72.5 -16q33 0 70.5 11t70.5 24.5t57.5 25t32.5 11.5q18 0 31.5 -12.5t13.5 -33.5q0 -22 -16.5 -42t-42.5 -38t-58 -32.5t-64 -25t-60 -16.5t-45 -6q-67 0 -121 26t-92.5 70t-59.5 101.5t-21 120.5z
M2538 806q17 0 26 -10.5t9 -24.5q0 -26 -8 -52.5t-8 -53.5q0 -34 6.5 -48.5t15 -21t15 -10.5t6.5 -17q0 -17 -13 -26t-30 -9q-29 0 -45 15.5t-31 36.5q-7 -13 -16.5 -28t-22 -27.5t-28 -21t-33.5 -8.5q-26 0 -43 11.5t-27.5 29.5t-15 39t-4.5 40q0 29 9.5 59.5t28 55
t46.5 40.5t66 16q17 0 30.5 -3t27.5 -5q8 7 16.5 15t22.5 8zM2443 709q-19 0 -31.5 -11t-20 -26.5t-10.5 -33.5t-3 -31q0 -20 3.5 -28.5t9.5 -7.5t13.5 10t15.5 24q14 25 22.5 50t20.5 51q-7 2 -11 2.5t-9 0.5zM2923 663q20 0 35.5 -11t15.5 -32q0 -22 -13 -33t-31.5 -16.5
t-38 -9t-32.5 -9.5q4 -19 11.5 -51t15 -66t13 -65.5t5.5 -49.5q0 -17 -13.5 -28t-30.5 -11q-12 0 -24 15.5t-23 39.5t-20.5 53.5t-17.5 56.5t-14 49t-9 32q-7 0 -12.5 -0.5t-11.5 -0.5q-14 0 -29 0.5t-27 5t-20 14.5t-8 28q0 15 9 27t22.5 20.5t28.5 14t27 8.5
q-12 43 -13.5 97t14.5 102t52.5 80.5t99.5 32.5q20 0 38 -7.5t32 -20.5t22.5 -31t8.5 -39q0 -19 -9 -37t-32 -18q-9 0 -17.5 4t-14.5 9q-16 12 -28.5 9.5t-21 -15.5t-14 -33t-7 -41.5t0 -42t6.5 -33.5q19 0 37.5 1.5t37.5 1.5zM3161 701q-8 -22 -12 -51t0.5 -55t20 -44
t46.5 -18q24 0 45 7t39 15.5t32 15.5t24 7q15 0 26.5 -11.5t11.5 -23.5q0 -32 -18.5 -54.5t-45.5 -36.5q-54 -27 -108 -30t-98 17t-71.5 62.5t-27.5 106.5q0 42 13.5 86t39 80.5t62 60t81.5 23.5q26 0 53 -9.5t49 -26.5t36 -40.5t14 -50.5q0 -26 -11 -49.5t-29.5 -41.5
t-42 -29t-48.5 -11q-28 0 -44.5 15.5t-16.5 44.5q0 24 11.5 34.5t28.5 15.5q26 9 23.5 21t-31.5 12q-22 0 -33.5 -11.5t-18.5 -30.5z" />
    <glyph glyph-name=".notdef" horiz-adv-x="438" 
 />
    <glyph glyph-name="NULL" horiz-adv-x="0" 
 />
    <glyph glyph-name="NULL" horiz-adv-x="0" 
 />
    <glyph glyph-name="nonmarkingreturn" unicode="&#xd;" horiz-adv-x="438" 
 />
    <glyph glyph-name="space" unicode=" " horiz-adv-x="438" 
 />
    <glyph glyph-name="asciitilde" unicode="~" horiz-adv-x="406" 
d="M138 550q0 -17 -16 -30t-31 -13q-21 0 -33 15.5t-12 35.5t10.5 48.5t28 54.5t39 44.5t44.5 18.5q22 0 36.5 -9.5t23.5 -21t15 -21.5t13 -11.5t16.5 9.5t24.5 42q7 13 14.5 21t19.5 8q20 0 28 -16.5t8 -33.5q0 -19 -10.5 -41.5t-27 -41.5t-36.5 -31.5t-40 -12.5
q-17 0 -31.5 8.5t-27.5 19t-23.5 18t-17.5 6t-11 -16t-4 -49.5z" />
    <glyph glyph-name="currency" unicode="&#xa4;" horiz-adv-x="598" 
d="M120 456q-32 26 -55 55.5t-23 70.5q0 25 11 50t28 48.5t37.5 45t38.5 39.5q-14 11 -35 23t-41.5 25.5t-35 28t-14.5 31.5q0 21 20 36.5t46 15.5q18 0 39.5 -11t43.5 -26.5t41.5 -32t34.5 -27.5l110 19q9 12 23 31.5t30 38t34.5 31.5t36.5 13q23 0 39.5 -12.5t16.5 -30.5
q0 -11 -11 -29t-26 -37.5t-30.5 -37.5t-24.5 -28q13 -15 27.5 -30t26 -32t19 -35.5t7.5 -39.5q0 -18 -6 -36t-15.5 -35.5t-21.5 -34.5t-23 -32q15 -11 30.5 -22t29 -24t22 -28t8.5 -34q0 -18 -14 -34.5t-37 -16.5q-20 0 -42 15.5t-44 34t-42.5 34t-36.5 15.5
q-39 0 -66 -10.5t-46.5 -25.5t-33 -33.5t-25 -33.5t-23.5 -25.5t-28 -10.5q-11 0 -22 4.5t-19 12t-13 17.5t-5 20t6.5 22.5t16 24.5t19.5 23t17 20zM397 619q-8 30 -26.5 45.5t-41.5 19.5t-47 -2t-44 -20.5t-33 -36t-13 -46.5q0 -18 15 -25.5t38 -7.5t49.5 7t49.5 17t38 23
t15 26z" />
    <glyph glyph-name="grave" unicode="`" horiz-adv-x="307" 
d="M40 1026q0 19 14 32.5t31 13.5q9 0 26.5 -8.5t38.5 -22t42.5 -30.5t39 -33.5t28.5 -30.5t11 -22q0 -17 -12 -29.5t-27 -12.5q-7 0 -23.5 7.5t-38 20t-44.5 28.5t-42 32t-31.5 30.5t-12.5 24.5z" />
    <glyph glyph-name="question" unicode="?" horiz-adv-x="523" 
d="M307 1083q34 0 69.5 -13.5t64 -37t46.5 -54.5t18 -66q0 -54 -25 -98.5t-57.5 -86t-62 -84t-38.5 -91.5q-2 -15 -10.5 -26t-22.5 -16q-10 -5 -19 -5q-17 0 -28 9.5t-17.5 23.5t-9 30t-2.5 30q0 55 25 102.5t55 87.5t55 73.5t25 60.5q0 13 -7 22t-18 15t-24 8.5t-24 2.5
q-37 0 -66 -20.5t-48.5 -51.5t-30 -67.5t-10.5 -67.5q0 -12 3.5 -23.5l7 -23t7 -22.5t3.5 -22q0 -17 -15 -29.5t-33 -12.5q-26 0 -43 17t-27.5 41.5t-15 51.5t-4.5 47q0 60 20.5 114t57.5 94.5t88.5 64t112.5 23.5zM258 324q-26 0 -47 17t-21 43q0 28 19.5 48.5t46.5 20.5
q26 0 46 -18t20 -45q0 -29 -17.5 -47.5t-46.5 -18.5z" />
    <glyph glyph-name="underscore" unicode="_" horiz-adv-x="400" 
d="M196 384h-103q-16 0 -30 10.5t-14 29.5t8 29t20 14t26 4.5t27 0.5h30.5t45 -1t50.5 -4t47.5 -8.5t35 -14t13.5 -21.5q0 -14 -6.5 -22t-16.5 -12t-21.5 -5.5t-21.5 -1.5h-90v2z" />
    <glyph glyph-name="bracketright" unicode="]" 
d="M169 234q0 113 -0.5 235.5t-0.5 236.5q0 78 14 153.5t28 151.5h-29q-15 0 -36.5 2.5t-41.5 10t-34 19.5t-14 32q0 29 16.5 40.5t37.5 13.5q42 7 87.5 13.5t85.5 6.5q36 0 54 -23t18 -61q0 -13 -2 -26.5t-4 -29.5q-29 -145 -39.5 -283.5t-10.5 -284.5q0 -54 1.5 -114.5
t0.5 -113.5q0 -43 -19 -67.5t-61 -33.5q-9 -3 -25.5 -5.5t-34.5 -4t-35.5 -2t-28.5 -0.5q-29 0 -51.5 13.5t-22.5 49.5q0 25 16 38t39.5 19t48.5 8t43 6z" />
    <glyph glyph-name="backslash" unicode="\" horiz-adv-x="400" 
d="M27 1042q0 23 13.5 39.5t37.5 16.5q15 0 25 -7t17.5 -18t12.5 -24t9 -25q43 -128 85.5 -255.5t93.5 -254.5q4 -9 13.5 -26.5t19.5 -36t17.5 -34t7.5 -21.5q0 -15 -12 -27t-28 -12q-18 0 -41.5 25t-48.5 67.5t-51.5 97.5t-51 114.5t-46.5 119t-38 111.5t-25.5 91.5
t-9.5 58.5z" />
    <glyph glyph-name="bracketleft" unicode="[" 
d="M207 1015q0 -113 0.5 -235.5t0.5 -236.5q0 -78 -14 -153.5t-28 -151.5h29q15 0 36.5 -2.5t41.5 -10t34 -20t14 -31.5q0 -29 -16.5 -40.5t-37.5 -13.5q-42 -7 -87.5 -13.5t-85.5 -6.5q-36 0 -54 23t-18 61q0 13 2 26.5t4 29.5q29 145 39.5 283.5t10.5 284.5
q0 54 -1.5 114.5t-0.5 113.5q0 43 19 67.5t61 33.5q9 3 25.5 5.5t34.5 4t35.5 2t28.5 0.5q29 0 51.5 -13.5t22.5 -49.5q0 -26 -16 -38.5t-39.5 -18.5t-48.5 -8t-43 -6z" />
    <glyph glyph-name="Z" unicode="Z" horiz-adv-x="700" 
d="M259 337q14 1 37 4t47.5 6t47.5 5.5t38 2.5q18 0 51 -2t71.5 -6.5t78.5 -13.5t73 -22.5t53.5 -33t20.5 -45.5q0 -19 -15 -36.5t-35 -17.5q-3 0 -7 1.5t-8 3.5q-72 18 -136 23t-137 5q-42 0 -83 -3t-79 -13q-17 -4 -43.5 -15t-54 -23t-51 -21t-34.5 -9q-23 0 -40 16
t-17 41q0 15 6 32q22 44 57 106.5t78.5 134.5t92 147t96.5 143.5t92.5 125t80.5 90.5q-22 -3 -57 -9t-76.5 -13t-86.5 -14t-85.5 -13t-74 -10t-52.5 -4q-29 0 -50.5 17.5t-21.5 46.5q0 30 28.5 52t67 36.5t78.5 23t64 11.5q41 6 89 14t96.5 14.5t96.5 11t89 4.5q22 0 42 -5
t35.5 -16.5t25 -29t9.5 -42.5q0 -32 -19 -56q-8 -12 -19.5 -21.5t-22.5 -17.5q-26 -19 -63.5 -64.5t-79.5 -105t-86.5 -126t-84.5 -127.5t-72.5 -110t-50.5 -73z" />
    <glyph glyph-name="Y" unicode="Y" horiz-adv-x="679" 
d="M382 550q-17 -14 -34.5 -27.5t-35.5 -24.5t-38 -17.5t-42 -6.5q-39 0 -68.5 18t-51.5 47.5t-37 67.5t-24.5 79t-13.5 81t-4 74q0 24 1.5 60.5t9 70t24 57.5t47.5 24q23 0 36.5 -15.5t19.5 -41.5q1 -11 1.5 -42t1.5 -70.5t2.5 -82.5t6.5 -77q10 -71 30.5 -94.5t49 -13
t63 47.5t73.5 86q32 40 62.5 85t57.5 86.5t49.5 74.5t37.5 48q11 11 25 18t30 7q31 0 52.5 -25t21.5 -59q0 -20 -22 -78.5t-55 -139.5t-71.5 -176t-71.5 -187.5t-55 -174t-22 -135.5q0 -26 -16.5 -43t-37.5 -17q-28 0 -44 19.5t-22.5 51.5t-5.5 74t7 87t15 90t18 84t17.5 68
t12.5 42z" />
    <glyph glyph-name="X" unicode="X" horiz-adv-x="745" 
d="M355 399q-24 -33 -45 -70.5t-40.5 -75t-38.5 -72.5t-38 -63q-10 -14 -25 -23.5t-29 -9.5q-25 0 -44 25t-19 59q0 47 19.5 99.5t47 103.5t58 96t52.5 78q-16 26 -37 60.5t-44 73t-45 80.5t-39.5 84t-28.5 82t-11 76q0 42 20.5 69t52.5 27q15 0 27 -7t24 -16
q10 -11 27 -37.5t37.5 -62t42 -76t41.5 -78.5t36.5 -69.5t25.5 -48.5q15 16 44.5 48.5t66 71.5t76.5 80t76 74.5t65 55t43 21.5q20 0 34 -18.5t14 -44.5q0 -17 -7.5 -32t-16.5 -28q-81 -93 -158 -182.5t-153 -186.5q24 -36 50.5 -75.5t56.5 -73.5t63.5 -57.5t71.5 -28.5
q23 -7 42 -22t22 -50v-11q0 -24 -9 -39.5t-23 -25t-30 -13t-31 -3.5q-47 0 -90.5 23.5t-84 59t-78 76.5t-71.5 77z" />
    <glyph glyph-name="W" unicode="W" horiz-adv-x="993" 
d="M391 388q-12 -22 -27 -51t-32.5 -59.5t-37 -60.5t-40.5 -53t-43.5 -37.5t-45.5 -14.5q-42 0 -68.5 29.5t-41 73.5t-19.5 94t-5 91q0 23 3 63.5t9.5 91t15.5 107t21.5 112.5t28 107t34.5 90t41 62t47 23q32 0 52.5 -25t20.5 -62q0 -7 -7 -30.5t-18.5 -59t-25.5 -79.5
t-28.5 -92.5t-27.5 -98t-22 -95.5q-18 -89 -13.5 -134.5t24.5 -50.5t52 30t69 107q13 24 23 54t19.5 61t19 60.5t20 52.5t23.5 37t29 14q24 0 38.5 -10.5t23 -28t11.5 -40.5t3 -48q0 -24 4.5 -54t12.5 -60q22 -81 48.5 -129t53.5 -67t53 -12t45.5 37t31.5 80t12 116
q0 54 -14 110.5t-30.5 111t-30 104.5t-13.5 91q0 56 26 75.5t65 19.5q34 0 59 -24t43.5 -63t30.5 -87.5t18.5 -98t9.5 -94.5t3 -77q0 -51 -8 -107t-24.5 -110t-41 -103.5t-57 -86.5t-73.5 -59t-89 -22q-49 0 -88 25.5t-71 65.5t-57 89.5t-45 98.5z" />
    <glyph glyph-name="V" unicode="V" horiz-adv-x="636" 
d="M300 375q17 52 36 121.5t39.5 145.5t41.5 153t42 145t40.5 120.5t37.5 79.5q14 21 39.5 33.5t51.5 11.5q54 -2 81 -29t31 -69.5t-13.5 -96.5t-53.5 -110q-45 -69 -84.5 -146.5t-73.5 -154.5t-62 -148.5t-48 -128.5t-32.5 -94.5t-15.5 -45.5q-11 -29 -38.5 -42.5
t-56.5 -13.5q-48 0 -83.5 36.5t-61.5 95t-43.5 131t-28 144t-14.5 135t-4 102.5q0 18 0.5 45t2.5 56.5t7.5 59t15.5 53.5t25.5 38.5t38.5 14.5q26 0 46.5 -17t22.5 -49q1 -73 0 -148t1.5 -149t11.5 -144t32 -132q16 -41 37 -40t32 37z" />
    <glyph glyph-name="U" unicode="U" horiz-adv-x="948" 
d="M648 423q-25 -41 -54 -82.5t-63 -79.5q-67 -76 -135.5 -111t-128.5 -24q-44 8 -80.5 37t-63.5 74.5t-44.5 105t-21.5 128.5q-3 35 -1 91.5t9 121.5t21 132t35 122t50 91t67 40q13 2 25.5 -3.5t22.5 -16t16 -25t8 -30.5q2 -20 -3 -36t-10 -33q-34 -114 -51.5 -233.5
t-8.5 -240.5q7 -96 31 -135.5t58 -38t73.5 37.5t77.5 91q43 61 80 138.5t68 155t55.5 147t42.5 114.5q10 28 23 54t27.5 46.5t31 33.5t35.5 15q38 4 66 -20.5t31 -71.5q2 -23 -2 -43.5t-10 -40.5q-32 -129 -51 -266.5t-10 -274.5q3 -42 13.5 -80.5t21.5 -70.5t20.5 -56.5
t10.5 -37.5q3 -45 -20 -68t-55 -26q-38 -4 -66 13t-49 47.5t-36 70.5t-25.5 82.5t-17.5 83.5t-13 72z" />
    <glyph glyph-name="T" unicode="T" horiz-adv-x="669" 
d="M610 928q-5 -40 -10.5 -90.5t-10 -107t-8.5 -115t-7.5 -114.5t-5 -106.5t-1.5 -90.5q0 -55 9.5 -83.5t20.5 -44.5t20.5 -26.5t9.5 -29.5q0 -25 -18.5 -43.5t-43.5 -18.5q-41 0 -70 31t-48 83t-30 119.5t-15.5 141t-4 147t4 137.5t9 113t10.5 73q-75 -7 -150.5 -8
t-150.5 -1q-18 0 -35 4.5t-30.5 14.5t-22 25t-8.5 35q0 24 9 40.5t33 27.5q10 5 44 12.5t84.5 17.5t113 20.5t128.5 21t130.5 20t120.5 16.5t97.5 11.5t61.5 4.5q21 0 40 -3.5t33.5 -12.5t23.5 -25t9 -41q0 -28 -19.5 -49t-51 -36t-70 -25.5t-76.5 -18.5t-71.5 -14
t-53.5 -12z" />
    <glyph glyph-name="S" unicode="S" horiz-adv-x="673" 
d="M376 439q-32 11 -69.5 20.5t-75 20.5t-72.5 26t-61.5 37t-42.5 53t-16 74q0 51 20.5 104.5t55 103.5t81 94t98 77t105.5 52t105 19q37 0 75 -10.5t69 -32t50 -53.5t19 -75q0 -26 -12.5 -55.5t-33.5 -59.5t-48.5 -57.5t-56.5 -48.5t-58.5 -33.5t-54.5 -12.5q-24 0 -39 15
t-15 38q0 17 9.5 27t23.5 18q37 17 61.5 33.5t40.5 32.5q13 13 24 32t13 35.5t-8 28.5t-38 12t-62.5 -14t-69.5 -38t-67.5 -54.5t-58 -63.5t-41 -65.5t-15.5 -60.5q0 -16 31 -29t77 -28t100.5 -33t100.5 -44.5t77 -62.5t31 -86q0 -42 -23.5 -80t-62 -70t-87 -58.5
t-98.5 -44.5t-96 -28t-80 -10q-17 0 -35 5.5t-32.5 16t-23.5 25.5t-9 34q0 28 16.5 45t43.5 22q27 0 61 4.5t69.5 13.5t69.5 23t61 34q61 43 53.5 74.5t-79.5 57.5z" />
    <glyph glyph-name="R" unicode="R" horiz-adv-x="952" 
d="M553 387q26 -17 61 -34t70 -33.5t66.5 -32t50.5 -28.5q16 -10 27.5 -26.5t11.5 -37.5q0 -29 -21.5 -44.5t-46.5 -15.5q-35 0 -74 15.5t-79 39t-78.5 50.5t-71.5 50.5t-59 39t-40 15.5h-81q-3 -16 -3.5 -33t-0.5 -35q0 -49 8.5 -71.5t18.5 -34t18.5 -20.5t8.5 -30
q0 -27 -21.5 -44t-46.5 -17q-43 0 -70 25.5t-43.5 66.5t-23.5 92t-10 101.5t-4 95t-5 73.5q-7 -1 -12 -2t-10 -1q-29 0 -47 17.5t-18 45.5q0 25 12 56.5t30 63t38.5 60t36.5 48.5q15 18 26.5 47.5t22 64t23 69.5t30 63t41 46t57.5 18q22 0 35.5 -9t21 -23.5t8.5 -32
t-2 -34.5q71 27 142 48t149 21q51 0 97.5 -13.5t82 -41t57 -69t21.5 -97.5q0 -50 -19 -98.5t-51 -94.5t-73.5 -88t-86.5 -77.5t-90 -64.5t-84 -49zM709 936q-41 0 -87.5 -11t-93 -29.5t-88.5 -42.5t-73 -49q-5 -4 -11 -22.5t-12 -44.5t-11.5 -56t-10 -57.5t-7.5 -48.5
t-3 -29q0 -23 14 -37t35 -14q30 0 74 20t92 52t95.5 73.5t86.5 85.5q15 17 32.5 39t31 45.5t20 46t1.5 40t-25 28.5t-60 11z" />
    <glyph glyph-name="Q" unicode="Q" horiz-adv-x="987" 
d="M531 264q-12 45 -28.5 95t-31.5 102t-25 103.5t-10 98.5q0 62 22.5 107t59.5 73.5t84 41t96.5 9.5t96.5 -21t84 -49.5t59.5 -76.5t22.5 -102q0 -65 -24 -126t-61 -116t-81 -102.5t-84 -86.5q13 -28 34.5 -49.5t42.5 -39.5t36.5 -34.5t15.5 -35.5q0 -25 -16.5 -42.5
t-36.5 -17.5q-28 0 -54.5 12t-49.5 31.5t-43.5 43t-36.5 47.5q-30 -11 -59.5 -23.5t-59.5 -23.5t-60 -18t-60 -7q-79 0 -138.5 38t-99.5 99.5t-60 140t-20 158.5q0 53 12.5 117t36 129t56.5 126t74.5 108.5t90.5 76t104 28.5q18 0 36 -5.5t33 -16.5t24 -29t9 -42
q0 -12 -3.5 -23t-8.5 -23q-8 -12 -17 -17.5t-19 -9t-20.5 -7t-20.5 -11.5q-46 -34 -81.5 -81.5t-59.5 -103.5t-36.5 -117.5t-12.5 -122.5q0 -71 22 -126.5t60.5 -85.5t91 -30.5t114.5 37.5zM639 343h9q25 22 55.5 56.5t58 75t46.5 83.5t21 82q2 36 -19 67t-52.5 47.5
t-67 15.5t-61.5 -28t-37 -84.5t6 -152.5q11 -51 20.5 -94t20.5 -68z" />
    <glyph glyph-name="P" unicode="P" horiz-adv-x="1011" 
d="M297 336q2 -38 2 -84t11 -81q3 -10 10 -17t13.5 -15t12 -18t5.5 -25q0 -17 -7 -31t-18 -23.5t-25 -15t-28 -5.5q-37 0 -64.5 30t-47.5 77t-33 105t-20.5 114.5t-10.5 104.5t-3 76q0 51 4 101t10 100q-17 1 -32 5t-26.5 12.5t-18.5 21.5t-7 33q0 25 15 52t33 47
q11 12 36 34t53 44.5t54 40.5t38 23q38 12 91.5 25t115.5 23.5t128.5 16t130 1t120.5 -20.5t100 -48.5t68.5 -83t25.5 -124.5q0 -60 -24 -112t-64.5 -96.5t-92.5 -81.5t-107.5 -65.5t-111 -49t-101.5 -32.5q-60 -17 -118 -30.5t-117 -27.5zM300 468q44 -2 94 6t102 24.5
t103.5 40.5t97.5 53q102 65 145.5 130.5t32 118.5t-76.5 86t-179 33q-15 0 -41.5 -1.5t-57 -5t-62.5 -10.5t-58 -17.5t-43.5 -25.5t-19.5 -35q-10 -100 -20 -199.5t-17 -197.5z" />
    <glyph glyph-name="braceright" unicode="}" horiz-adv-x="450" 
d="M231 657q-10 15 -18.5 24.5t-15 20t-10 24t-3.5 34.5q0 27 4.5 54.5t10.5 54.5t10.5 54.5t4.5 54.5q0 18 -5.5 26t-21.5 8q-27 0 -52 -6t-50 -6q-18 0 -31.5 16.5t-13.5 37.5q0 23 20.5 40t48.5 28t56.5 16.5t44.5 5.5q34 0 60 -14.5t43.5 -39t26.5 -56.5t9 -67
q0 -61 -16 -116.5t-32 -112.5q13 -4 29 -7.5t29.5 -10t22.5 -17.5t9 -30q0 -26 -21 -44.5t-46.5 -39.5t-46.5 -49t-21 -71q0 -23 6 -44t13.5 -42t13.5 -42.5t6 -45.5q0 -34 -14 -71.5t-38 -68.5t-55 -51t-64 -20q-12 0 -23.5 5t-21 13.5t-15.5 20t-6 25.5q0 16 8.5 28.5
t21.5 24t28.5 22.5t28.5 24.5t21.5 31.5t8.5 43q0 18 -4 35t-8.5 35t-8.5 37t-4 40q0 30 6.5 54t17 44.5t25 40t30.5 40.5z" />
    <glyph glyph-name="bar" unicode="|" horiz-adv-x="216" 
d="M39 498q0 33 1 78.5t3.5 97.5t6 106t8.5 105t11.5 94.5t14.5 73.5q5 16 18 28t31 12q26 0 39 -23.5t18.5 -55t5.5 -63.5v-50q0 -27 -3 -75t-8.5 -106.5t-12 -122.5t-14 -122t-15 -104.5t-14.5 -70.5q-5 -17 -16 -28t-28 -11q-16 0 -25 7.5t-13.5 19.5t-6 26t-1.5 26v158z
" />
    <glyph glyph-name="braceleft" unicode="{" horiz-adv-x="450" 
d="M201 571q9 -15 17.5 -24.5t15 -20t10 -24t3.5 -34.5q0 -27 -4.5 -54.5t-10.5 -54.5t-10.5 -54.5t-4.5 -54.5q0 -18 5.5 -26t21.5 -8q27 0 52 6t50 6q18 0 31.5 -16.5t13.5 -37.5q0 -23 -20.5 -40t-48.5 -28t-56 -16.5t-44 -5.5q-34 0 -60 14.5t-44 39t-27 56.5t-9 67
q0 61 16 116.5t32 112.5q-13 4 -28.5 7.5t-29 10t-23 17.5t-9.5 30q0 17 10 31t25 27t32.5 26.5t32.5 30.5t25 38.5t10 50.5q0 22 -6 43.5t-13.5 42.5t-13.5 42.5t-6 45.5q0 34 14.5 71.5t38 68.5t54.5 51t64 20q24 0 45 -18.5t21 -45.5q0 -17 -8.5 -29t-21.5 -23.5
t-28.5 -22.5t-28.5 -24.5t-21.5 -31.5t-8.5 -43q0 -18 4 -35.5t9 -35.5t9 -36.5t4 -39.5q0 -30 -6.5 -54t-17 -44.5t-25.5 -40t-31 -40.5z" />
    <glyph glyph-name="z" unicode="z" horiz-adv-x="469" 
d="M195 529q36 2 69.5 5t71.5 3q13 0 30.5 -1t33 -6.5t26 -16t10.5 -29.5q0 -35 -34 -48q-6 -3 -28 -6.5t-52.5 -7.5t-65.5 -8t-66.5 -7t-56 -5t-33.5 -2q-28 0 -50 17t-22 46q0 17 13 41.5t33 53t45 58.5t49 58t44 52t31 39q-23 -3 -45 -3q-18 0 -47 1.5t-56.5 8.5
t-47.5 21.5t-20 40.5q0 27 17.5 41t42.5 14q21 0 43 -3t45 -3q48 0 94.5 8.5t94.5 8.5q27 0 47.5 -16.5t20.5 -45.5q0 -12 -14.5 -35.5t-37.5 -53t-51 -62t-54 -63t-48 -55.5t-32 -40z" />
    <glyph glyph-name="y" unicode="y" horiz-adv-x="537" 
d="M378 429q2 28 -0.5 54t-7.5 52q-16 -24 -33.5 -50.5t-39.5 -48t-50 -35t-64 -10.5q-51 4 -82.5 36.5t-48 77.5t-20.5 95t-1 90q2 24 8 60t18.5 69.5t33.5 56.5t54 21q23 -2 41 -21.5t16 -43.5q0 -7 -4 -25t-9 -42.5t-10 -54t-8 -58.5q-6 -55 4.5 -91t29.5 -45.5t44 9.5
t49 73q14 31 25 67.5t19 69.5t13.5 60t8.5 39q5 20 16.5 37t34.5 15q24 -2 35 -19.5t15 -37.5q6 -48 14 -110t15 -126.5t10.5 -126t-0.5 -106.5t-19.5 -88t-42.5 -76t-66 -52t-90 -15q-16 1 -33 9t-30.5 20.5t-21.5 29t-6 34.5q1 21 15.5 37.5t38.5 14.5q34 0 56.5 8.5
t37.5 27.5t23 48t12 71z" />
    <glyph glyph-name="x" unicode="x" horiz-adv-x="463" 
d="M270 619q23 -25 53.5 -51.5t66.5 -35.5q20 -5 31 -13.5t11 -28.5q0 -23 -19.5 -31t-40.5 -8q-25 0 -47 7t-42.5 18t-39 24t-36.5 25q-8 -14 -23 -40.5t-33 -52t-37.5 -44.5t-37.5 -19q-21 0 -37.5 11t-16.5 32q0 16 11 42t26.5 53.5t31.5 53t27 42.5q-12 13 -29 34
t-32 44.5t-25.5 47t-10.5 42.5q0 20 15.5 35.5t41.5 15.5q17 0 35.5 -14t35 -33.5t31 -39.5t24.5 -32q8 9 23 27l32.5 39t37.5 42.5t39.5 39t36.5 29t30 11.5q15 0 26.5 -10.5t11.5 -24.5q0 -1 -11.5 -17t-29 -40t-38.5 -52.5t-40 -54.5t-33.5 -46t-18.5 -27z" />
    <glyph glyph-name="w" unicode="w" horiz-adv-x="565" 
d="M246 528q-9 -17 -19.5 -35.5t-23.5 -34.5t-30 -26.5t-38 -10.5q-33 0 -54 17.5t-33 43.5t-16.5 55.5t-4.5 54.5q0 19 3.5 56.5t13 75t26.5 65.5t44 28q19 0 33.5 -12.5t14.5 -32.5q0 -34 -8.5 -70t-8.5 -74q0 -66 9.5 -66t32.5 63l14 42t15.5 37.5t19.5 27t28 10.5
q19 0 32 -14.5t22.5 -37t17 -48t15 -48t17 -37t22.5 -14.5q11 0 18 10.5t11 24.5t5.5 28.5t1.5 23.5q0 37 -7 77t-13 76q-5 18 -14.5 32.5t-9.5 31.5q0 20 15 35.5t33 15.5q33 0 55.5 -30.5t36.5 -72t20.5 -84t6.5 -66.5q0 -35 -9.5 -73.5t-29.5 -70.5t-50.5 -53.5
t-72.5 -21.5q-27 0 -46.5 9t-36 23t-30 32.5t-28.5 37.5z" />
    <glyph glyph-name="v" unicode="v" horiz-adv-x="336" 
d="M216 678q16 82 28.5 128.5t25 68.5t25.5 27t30 5t28 -11.5t11 -28.5q0 -6 -6.5 -36.5t-17 -73t-22.5 -91.5t-23 -92t-19.5 -73.5t-10.5 -35.5q-11 -24 -30.5 -39t-45.5 -15q-29 0 -54 18.5t-44.5 48t-34.5 66.5t-25.5 73.5t-15.5 69t-5 54.5q0 29 14 51t46 22
q36 0 53 -34q11 -25 20 -54.5t17 -58.5q2 -6 4.5 -17t6.5 -20.5t8 -15.5t10 -3t12.5 18.5t14.5 48.5z" />
    <glyph glyph-name="u" unicode="u" horiz-adv-x="507" 
d="M322 591q-17 -23 -35.5 -52t-39.5 -54.5t-46 -43.5t-56 -18q-34 0 -57 17.5t-37.5 44.5t-20.5 60t-6 65q0 27 6 65.5t19 74.5t34.5 61.5t51.5 25.5q19 0 35.5 -17.5t16.5 -41.5q0 -18 -5.5 -42.5t-12.5 -51.5q-12 -63 -9.5 -89.5t14.5 -25t31.5 26.5t40.5 64
q14 28 27.5 57.5t26.5 53.5q17 30 33.5 42.5t33.5 12.5q21 0 32.5 -12t16 -29.5t5 -38t0.5 -37.5q0 -51 10.5 -91t23.5 -69t23.5 -48t10.5 -29q0 -18 -14.5 -32t-30.5 -14q-25 0 -44 18.5t-34 45t-26 54.5t-18 47z" />
    <glyph glyph-name="t" unicode="t" horiz-adv-x="538" 
d="M85 633q-14 1 -27.5 3t-24 7t-17 15t-6.5 29q0 22 13 31t29 14t30.5 10.5t17.5 22.5q5 25 12.5 65.5t21 79.5t34 67.5t52.5 28.5q23 0 40 -13.5t17 -38.5q0 -47 -12.5 -98.5t-20.5 -99.5h44q12 0 29 -1t32.5 -6t26.5 -15t11 -28q0 -21 -17.5 -31t-41.5 -13.5t-49.5 -3.5
t-41.5 -1q-3 -46 -1.5 -87t8 -72.5t20 -50.5t34 -19.5t49.5 19.5t67 66q17 20 30.5 34.5t24.5 14.5q17 0 29 -11.5t12 -28.5q0 -22 -13 -48t-32 -53q-52 -74 -101.5 -105t-93.5 -30t-80.5 30.5t-61.5 77.5t-36.5 110t-6.5 129z" />
    <glyph glyph-name="s" unicode="s" horiz-adv-x="346" 
d="M174 501q-19 22 -43 41.5t-45 41t-35.5 46.5t-14.5 58q0 34 14 63.5t37.5 51.5t54 34.5t63.5 12.5q20 0 40.5 -6.5t36.5 -18.5t26 -29.5t10 -39.5t-14 -42.5t-39 -20.5q-10 0 -17 5t-13 10.5t-12 10.5t-15 5q-17 0 -33 -15t-16 -33q0 -15 21 -33t45.5 -41.5t45.5 -54
t21 -69.5q0 -35 -15.5 -60t-39.5 -41t-54 -23.5t-60 -7.5q-14 0 -32 1.5t-34 7t-27 16.5t-11 29q0 25 18.5 37.5t43.5 21t51 17t42 25.5z" />
    <glyph glyph-name="r" unicode="r" horiz-adv-x="349" 
d="M168 795q20 9 39.5 17t42.5 8q12 0 26.5 -3t27 -10t21 -18t8.5 -26q0 -25 -14.5 -37t-38.5 -12q-32 0 -55.5 -16t-39.5 -41t-23.5 -55.5t-7.5 -58.5q0 -25 4 -48t4 -48q0 -23 -14.5 -39.5t-38.5 -16.5q-27 0 -42.5 30t-23.5 70.5t-10 80t-2 59.5q0 21 1.5 60t9 77.5
t24.5 67t48 28.5q14 0 24 -6.5t16.5 -16.5t9.5 -22t4 -24z" />
    <glyph glyph-name="q" unicode="q" horiz-adv-x="424" 
d="M307 802q9 9 18 21.5t19 23.5t21.5 19t24.5 8q21 0 34.5 -15.5t13.5 -38.5q0 -12 -5 -27.5t-9 -26.5q-28 -91 -44 -183.5t-16 -186.5q0 -23 3.5 -45.5t8 -42t8.5 -34.5t4 -21q0 -17 -12 -30t-28 -13q-19 0 -33 18t-23.5 46t-15.5 62t-9.5 67t-4.5 60t-1 42
q-13 -15 -26 -30.5t-28 -29t-31.5 -22t-37.5 -8.5q-29 0 -50.5 15.5t-35.5 39t-21 52t-7 54.5q0 45 11.5 91.5t35.5 84.5t60 62t85 24q27 0 48.5 -10.5t42.5 -25.5zM208 577q18 27 32.5 58t14.5 55q0 9 -7 15t-16 6q-17 0 -30.5 -10t-23.5 -26t-17 -35.5t-10 -38.5
q-6 -28 -6.5 -49t5.5 -27.5t20 5t38 47.5z" />
    <glyph glyph-name="o" unicode="o" horiz-adv-x="498" 
d="M241 885q11 0 24.5 -2.5t25.5 -8t20 -14t8 -20.5q0 -14 -7.5 -21t-22.5 -12q-26 -7 -49.5 -29.5t-40.5 -51t-27 -59.5t-10 -54q0 -16 5.5 -33t17 -31t28 -23t37.5 -9q17 0 36 10t34.5 25t26 32t10.5 31q0 21 -18 33.5t-40 23.5t-40 23t-18 31t16.5 32.5t39.5 13.5
q33 0 62 -11t51.5 -30t35.5 -44.5t13 -53.5q0 -36 -19 -73.5t-50.5 -68.5t-72 -50.5t-83.5 -19.5q-76 0 -121.5 34.5t-65.5 86t-15.5 111.5t30.5 111.5t71.5 86t107.5 34.5z" />
    <glyph glyph-name="p" unicode="p" horiz-adv-x="456" 
d="M211 442v-18q0 -32 2 -65.5t10 -66.5q3 -13 10 -20t13.5 -13t12 -13.5t5.5 -20.5q0 -27 -16.5 -40t-39.5 -13q-30 0 -52 24.5t-36.5 62.5t-23.5 84.5t-13.5 90.5t-5 80t0.5 54l-2 21l-3 3q-17 2 -31 10.5t-14 31.5q0 22 10 49.5t25 54.5t33 51t33 39q25 28 47.5 41.5
t61.5 13.5q38 0 73.5 -12t63 -34.5t44 -55.5t16.5 -76q0 -50 -17.5 -90t-46.5 -71.5t-67 -54t-79 -38.5l-7 -3.5t-7 -5.5zM213 580l7 -1q18 9 36 23t32.5 32t24 38.5t9.5 42.5q0 19 -13 37.5t-28.5 27.5t-29.5 3.5t-16 -33.5z" />
    <glyph glyph-name="n" unicode="n" horiz-adv-x="486" 
d="M171 805q32 20 66.5 38.5t74.5 18.5q37 0 64.5 -14.5t45.5 -39t26.5 -56t8.5 -65.5q0 -22 -1.5 -50.5t-4 -58.5t-5 -58.5t-5.5 -50.5q-6 -29 -20 -44.5t-46 -15.5q-17 0 -32.5 6t-26 20t-14.5 37t1 57q2 20 5.5 44t7 47.5t6 43.5t2.5 32q0 36 -24 41.5t-52.5 -15
t-52.5 -63.5t-24 -103q0 -25 4.5 -48t4.5 -48t-17.5 -44.5t-44.5 -19.5q-20 0 -35 13.5t-25.5 34.5t-17 47.5t-10 52.5t-5 49t-1.5 37q0 20 2.5 56.5t11.5 72t26.5 62t46.5 26.5q23 0 34 -13t26 -29z" />
    <glyph glyph-name="m" unicode="m" horiz-adv-x="732" 
d="M178 636q-9 -22 -11 -51.5t-4 -74.5q-1 -19 -2 -40t-7.5 -39t-21 -29t-42.5 -9q-30 1 -44 25t-18.5 56.5t-2.5 66t3 53.5q1 13 3.5 38.5t7.5 56t13 62.5t19.5 57.5t26.5 41.5t35 15q16 -1 25.5 -7.5t14.5 -16.5t7.5 -22.5t3.5 -25.5q22 13 46.5 20.5t49.5 5.5
q27 -2 49 -16t38 -34q21 21 42.5 40.5t46 34.5t53 23t64.5 6q42 -3 65.5 -21.5t34.5 -46.5t12.5 -61.5t-0.5 -67.5q-3 -57 -3.5 -116t-3.5 -116q-2 -25 -19.5 -40.5t-46.5 -13.5q-35 2 -48.5 31t-15.5 72.5t2.5 95.5t5.5 99t-11.5 60.5t-30.5 5t-38 -32t-35 -49.5
q-20 -36 -30 -74t-19 -69t-22 -50t-39 -17q-24 1 -38.5 19t-22 44t-10.5 56.5t-4 57.5q0 32 -9 42t-22 5.5t-26 -19t-21 -31.5z" />
    <glyph glyph-name="a" unicode="a" horiz-adv-x="466" 
d="M307 835q11 13 23.5 24t30.5 11q22 0 34.5 -15.5t12.5 -37.5q0 -38 -10.5 -77.5t-10.5 -81.5q0 -50 8.5 -71.5t19 -31.5t19 -16.5t8.5 -25.5q0 -26 -16 -39.5t-39 -13.5q-21 0 -36 6.5t-27 18t-22.5 26t-21.5 29.5q-8 -20 -20.5 -43t-29 -42.5t-37.5 -32.5t-45 -13
q-34 0 -57 17.5t-37.5 44t-20.5 58t-6 59.5q0 45 12.5 91.5t38 83.5t64 60.5t89.5 23.5q20 0 38 -5t38 -7zM258 721q-15 5 -24 5q-26 0 -43 -16.5t-27 -40.5t-14.5 -50.5t-4.5 -45.5q0 -30 5 -43t13 -11.5t18 15.5t20 36q18 36 29.5 74t27.5 77z" />
    <glyph glyph-name="b" unicode="b" horiz-adv-x="570" 
d="M193 744q45 25 92.5 42.5t101.5 17.5q31 0 58.5 -11t48 -31t32.5 -47.5t12 -59.5q0 -65 -29 -109t-74 -71.5t-100 -42.5t-107 -23q2 -9 6.5 -22.5t8.5 -27.5t7 -27t3 -22q0 -27 -18.5 -45.5t-47.5 -18.5q-32 0 -55 28t-39 71.5t-26.5 97.5t-16.5 105t-8 93.5t-2 64.5
q0 25 1.5 66t6.5 87.5t14.5 94.5t26.5 86.5t42.5 63t61.5 24.5q11 0 24 -7t24.5 -17.5t19 -23t7.5 -24.5q0 -8 -12 -35t-27 -65t-27 -83.5t-12 -89.5l2 -35zM319 688q-23 -9 -44.5 -23.5t-38.5 -32t-27.5 -37t-10.5 -40.5q0 -20 18 -20q51 0 92 20.5t70 48.5q30 30 38 52.5
t-1.5 34.5t-34.5 12t-61 -15z" />
    <glyph glyph-name="c" unicode="c" horiz-adv-x="645" 
d="M327 298q-66 0 -120.5 26t-92.5 69.5t-59 101t-21 120.5q0 67 23 134.5t65 121.5t101.5 88t131.5 34q27 0 58 -7t57 -22t43.5 -38t17.5 -56q0 -23 -11 -41t-37 -18q-15 0 -24.5 8t-20 17t-24.5 17t-39 8q-46 0 -83 -22t-63.5 -56.5t-40.5 -77t-14 -84.5q0 -37 9.5 -71
t29.5 -60.5t50.5 -42t72.5 -15.5q34 0 71.5 11t70.5 24t57 24t32 11q19 0 32.5 -12.5t13.5 -32.5q0 -22 -16.5 -42.5t-42.5 -38t-58 -32t-64 -25t-60 -16t-45 -5.5z" />
    <glyph glyph-name="d" unicode="d" horiz-adv-x="670" 
d="M472 463q-27 -21 -56.5 -44t-61.5 -43t-66 -33t-71 -13q-49 0 -83 22.5t-55 57.5t-30.5 77.5t-9.5 83.5q0 57 18 114.5t52 103.5t83.5 74.5t111.5 28.5q25 0 46 -4.5t40 -11.5t37 -16.5t39 -19.5l5.5 49.5t9 68t14.5 73.5t23 67.5t33.5 49.5t46.5 19t45 -18t18 -47
q0 -28 -8.5 -59.5t-12.5 -61.5q-5 -66 -12 -130.5t-7 -130.5q0 -8 6 -18t6 -24q0 -18 -6 -34t-6 -34q0 -63 10.5 -124t10.5 -123q0 -32 -21 -55t-53 -23q-30 0 -47.5 19.5t-27.5 47.5t-14 58.5t-7 52.5zM181 592q0 -53 20.5 -77t51 -28t66.5 9t66.5 34t51 47.5t20.5 49.5
q0 27 -13.5 53t-35.5 45.5t-49.5 31.5t-55.5 12q-32 0 -55 -17.5t-38 -44t-22 -57.5t-7 -58z" />
    <glyph glyph-name="e" unicode="e" horiz-adv-x="424" 
d="M210 745q-22 0 -34 -12t-19 -30q-8 -23 -12 -52t0.5 -55t20 -44t47.5 -18q24 0 45 7t39 16l32 16t23 7q15 0 26.5 -11t11.5 -25q0 -32 -18 -54t-45 -36q-54 -27 -108 -30t-98 17.5t-71.5 63t-27.5 105.5q0 42 13.5 86t39 80t61.5 59.5t81 23.5q26 0 53 -9.5t49 -26.5
t36 -40.5t14 -50.5q0 -26 -11 -49.5t-29.5 -41.5t-42 -29t-48.5 -11q-27 0 -44 16t-17 44q0 25 11.5 35.5t28.5 15.5q26 8 24 20.5t-31 12.5z" />
    <glyph glyph-name="f" unicode="f" horiz-adv-x="384" 
d="M229 661q20 0 38 1.5t37 1.5q20 0 35 -11t15 -32t-13 -32t-31 -16.5t-37.5 -9t-32.5 -10.5q4 -19 11.5 -51t15 -66t13 -65t5.5 -49q0 -17 -13.5 -28t-30.5 -11q-12 0 -24 15.5t-23 39.5t-21 53t-17.5 56.5l-13.5 49.5t-9 32q-7 0 -12.5 -0.5t-11.5 -0.5q-14 0 -28.5 0.5
t-27 5t-20.5 14t-8 28.5q0 15 9 26.5t22.5 20t28.5 14.5t27 9q-8 28 -11.5 62t-0.5 68.5t13.5 67t30 58t49.5 40.5t72 15q20 0 38 -7.5t32 -20.5t22.5 -31t8.5 -39q0 -19 -9 -37t-32 -18q-10 0 -18 4t-15 9q-16 12 -28 9.5t-20.5 -15.5t-13.5 -33t-7 -41.5t-0.5 -42
t6.5 -33.5z" />
    <glyph glyph-name="g" unicode="g" horiz-adv-x="435" 
d="M241 517q-23 -11 -45 -22t-51 -11q-27 0 -48.5 12t-36.5 31.5t-22.5 44.5t-7.5 52q0 45 21.5 91.5t56.5 84.5t78.5 62t87.5 24q35 0 63 -16t54 -38q18 -14 21 -31.5t3 -38.5q0 -36 -5.5 -71.5t-14 -71t-18 -70.5t-17.5 -69q27 -18 52 -36t44 -40t30.5 -49t11.5 -63
q0 -61 -28 -110t-72.5 -84t-99 -54t-108.5 -19q-33 0 -65.5 7.5t-58.5 24t-42.5 43.5t-16.5 65q0 48 29 82t71.5 55.5t90.5 31t85 9.5q25 0 42.5 -19.5t17.5 -43.5q0 -22 -13 -33.5t-33 -17.5t-42.5 -8.5t-42.5 -6t-33 -11t-13 -23.5q0 -11 10.5 -16t18.5 -5q25 0 55.5 12
t56.5 32.5t44 47.5t18 56q0 26 -11 39.5t-27.5 20.5t-36 10t-36 9.5t-27.5 18.5t-11 36q0 19 8 39.5t13 36.5zM177 703q-16 -33 -15.5 -56t11.5 -32t29.5 -2t38.5 36q31 42 33 70.5t-12.5 38t-39 -2.5t-45.5 -52z" />
    <glyph glyph-name="h" unicode="h" horiz-adv-x="462" 
d="M171 963l-8 -191q25 14 50.5 24.5t54.5 10.5q43 0 74 -19.5t50 -49.5t28 -67.5t9 -73.5q0 -19 0.5 -50t-5 -60.5t-19.5 -51t-42 -21.5q-26 0 -40 21t-20.5 53t-9 68.5t-5 68.5t-8.5 53t-19 21q-15 0 -32 -13.5t-31.5 -32.5t-23.5 -39.5t-9 -34.5t0.5 -36.5t1 -46.5t1 -46
t0.5 -35q0 -26 -19 -44.5t-44 -18.5q-24 0 -39.5 20t-24 52t-12.5 70.5t-4.5 75.5t0 67.5t0.5 46.5q0 35 2.5 85.5t8.5 102.5t17 100t28 79q10 16 26.5 24.5t36.5 8.5q14 0 25 -7.5t19 -19.5t12.5 -26t4.5 -26q0 -15 -11 -25t-23 -17z" />
    <glyph glyph-name="i" unicode="i" horiz-adv-x="211" 
d="M31 580q0 20 3.5 52.5t12.5 63.5t24.5 53.5t39.5 22.5q27 0 43 -12.5t18 -41.5q1 -15 -1 -33.5t-5 -37.5t-6 -35.5t-3 -26.5q0 -43 9 -84.5t9 -76.5q0 -20 -11 -34.5t-31 -14.5q-31 0 -50.5 22t-31 54t-16 67.5t-4.5 61.5zM213 880q0 -29 -17 -49t-49 -20
q-15 0 -30.5 5.5t-28 15t-20 22.5t-7.5 29q0 14 6 28.5t16 26t23.5 18.5t28.5 7q18 0 32.5 -7t24.5 -18.5t15.5 -26.5t5.5 -31z" />
    <glyph glyph-name="j" unicode="j" horiz-adv-x="231" 
d="M60 339q0 32 -9 68t-14 70q-3 35 -7.5 73t-4.5 75q0 17 3.5 33t11.5 28.5t21 20t33 7.5q23 0 37.5 -14t16.5 -36q3 -39 12.5 -75.5t19.5 -73t17.5 -74.5t7.5 -78q0 -46 -14 -93.5t-41 -85.5t-66 -62.5t-90 -24.5q-29 0 -59.5 12t-56 32.5t-42 47.5t-16.5 58
q0 26 14.5 44.5t40.5 18.5q19 0 33.5 -13t28 -28t27.5 -28t33 -13q17 0 29 12.5t19.5 29.5t11 36t3.5 33zM79 792q-27 0 -44 16.5t-17 41.5q0 26 18 42.5t43 16.5q24 0 41.5 -17.5t17.5 -41.5q0 -25 -17 -41.5t-42 -16.5z" />
    <glyph glyph-name="k" unicode="k" horiz-adv-x="384" 
d="M181 759q13 13 29 28.5t33 29t34.5 22t34.5 8.5q21 0 35 -14t14 -34q0 -17 -17.5 -41.5t-41.5 -49.5t-48 -48t-37 -38q12 -5 34.5 -11.5t44.5 -16.5t38.5 -22.5t16.5 -27.5q0 -17 -10.5 -30t-30.5 -13q-36 0 -72.5 12.5t-71.5 24.5q-8 2 -13 2t-5 -11q0 -43 4 -86.5
t10 -85.5q1 -11 5.5 -22t9 -21.5t8.5 -21t4 -21.5q0 -17 -14 -29.5t-31 -12.5q-27 0 -46.5 27t-32.5 69t-21 93t-12 99t-5.5 86t-1.5 55q0 20 2 57.5t7.5 82t15 91.5t24 85t35 62t48.5 24q18 0 33 -12.5t15 -32.5q0 -9 -2 -17.5t-4 -16.5q-16 -48 -24.5 -98.5t-14.5 -101.5
q-1 -9 -1.5 -17.5t1 -13t6.5 -3t15 11.5z" />
    <glyph glyph-name="l" unicode="l" horiz-adv-x="226" 
d="M172 906q-6 -80 -11 -146t-5 -120t6.5 -97.5t23.5 -76.5q10 -21 17.5 -37t7.5 -27q0 -23 -14 -37t-34 -14q-30 0 -52 22t-38 57t-25.5 78t-15.5 85t-8 78.5t-2 58.5t3 63.5t13 82.5t28.5 71.5t48.5 30.5q32 0 44.5 -20t12.5 -52z" />
    <glyph glyph-name="exclam" unicode="!" horiz-adv-x="237" 
d="M163 1062q24 0 37.5 -9.5t19.5 -24.5t7 -33.5t1 -36.5q0 -45 -7 -91t-16.5 -92.5t-19 -92.5t-14.5 -91q-2 -23 -15.5 -38t-38.5 -15q-20 0 -32.5 15t-19 36.5t-8.5 44.5t-2 39q0 18 1 53.5t4.5 79t10 89t18.5 82.5t30 61t44 24zM100 468q29 0 50.5 -19.5t21.5 -48.5
q0 -30 -21.5 -52.5t-50.5 -22.5q-30 0 -50 21.5t-20 53.5q0 31 21 49.5t49 18.5z" />
    <glyph glyph-name="quotedbl" unicode="&#x22;" horiz-adv-x="337" 
d="M157 975q0 -11 -5 -31.5t-14 -40t-21 -34t-26 -14.5q-17 0 -28.5 10t-11.5 27q0 13 3 37.5t10 47.5t19 40.5t29 17.5q12 0 21 -6t14 -15t7.5 -19.5t2.5 -19.5zM289 975q0 -11 -5 -31.5t-14 -40t-21 -34t-26 -14.5q-17 0 -28.5 10t-11.5 27q0 13 3 37.5t10 47.5t19 40.5
t29 17.5q12 0 21 -6t14 -15t7.5 -19.5t2.5 -19.5z" />
    <glyph glyph-name="numbersign" unicode="#" horiz-adv-x="630" 
d="M310 780q4 0 8 -1.5t6 -1.5l21 1q7 15 15.5 38.5t20 46t26.5 39t34 16.5q30 0 39.5 -18.5t9.5 -44.5q0 -17 -3.5 -33t-6.5 -32q21 2 44.5 4t45.5 2q16 0 29 -8t13 -28q0 -16 -13.5 -25t-32.5 -14.5t-38.5 -8t-31.5 -4.5q-21 -4 -32 -8t-17 -10.5t-8.5 -18.5t-6.5 -32
q11 1 24 3.5t24 2.5q19 0 32 -10.5t13 -28.5q0 -17 -15 -27.5t-36 -17t-42.5 -11t-34.5 -7.5q-5 -16 -10.5 -44.5t-14.5 -56.5t-22 -49t-32 -21q-20 0 -31 13.5t-11 31.5q0 27 5.5 56t7.5 56l-63 -10q-5 -12 -10 -33.5t-13 -41.5t-19 -35t-27 -15q-21 0 -30 10.5t-11.5 25.5
t-1 32t2.5 31q-13 2 -26 5.5t-23 9.5t-16 17t-6 28t10 28.5t25 19.5t32 13t31 8l9 38q-20 -2 -42.5 -7t-40.5 -5q-19 0 -32 13.5t-13 31.5q0 22 18.5 35.5t43.5 21.5t51.5 12t42.5 7q6 16 16 43t23 53.5t29.5 46t35.5 19.5q21 0 34.5 -16t13.5 -36q0 -25 -8.5 -50.5
t-14.5 -48.5zM321 673q-5 2 -10.5 3.5t-10.5 1.5q-20 0 -26.5 -13.5t-6.5 -31.5h43z" />
    <glyph glyph-name="dollar" unicode="$" horiz-adv-x="441" 
d="M313 948q37 4 63 2t42.5 -13.5t24 -34t7.5 -59.5q0 -14 -4 -32.5t-12 -34.5t-19 -27t-24 -11q-14 0 -23 6.5t-14 16.5t-7.5 22.5t-3.5 24.5q-14 -3 -24 -5.5t-22 -7.5q-7 -33 -10 -64t-8 -65q22 -11 45 -23.5t42.5 -29.5t32 -40t12.5 -56q0 -37 -15.5 -65.5t-39 -49.5
t-51 -36t-52.5 -26q0 -25 4 -49.5t4 -47.5q0 -16 -8 -25.5t-22 -9.5t-22 14.5t-13 33.5t-7.5 38.5t-4.5 30.5q-14 1 -37.5 4.5t-46.5 12t-40 24t-17 39.5q0 19 12 35t29 16q14 0 29.5 -10t31.5 -10q11 0 21.5 3.5t20.5 7.5l8 109q-24 5 -52 13t-52.5 23t-41 38t-16.5 58
q0 34 16 67t40.5 61t53 50t52.5 35q16 8 23 17.5t10 20.5t4 24.5t5 29.5q5 14 14.5 25t24.5 11q14 0 21.5 -8.5t11 -21t4 -26.5t0.5 -25zM304 519l-21 12l-16 9q0 -16 -1.5 -30.5t-3.5 -28.5zM201 685v50l-36 -36z" />
    <glyph glyph-name="percent" unicode="%" horiz-adv-x="705" 
d="M196 288q-21 0 -37.5 13t-16.5 36q0 26 17 66t45.5 88.5t66 101.5t79 104.5t84.5 98t82 81.5t72 56t54 21q16 0 28 -11t12 -27q0 -9 -17 -28.5t-38.5 -40.5t-42.5 -40.5t-29 -28.5q-97 -97 -172 -203.5t-133 -231.5q-3 -8 -6.5 -15.5t-8.5 -15.5q-7 -11 -16 -17.5
t-23 -6.5zM160 637q-27 0 -49.5 11t-39 29t-25.5 41.5t-9 49.5q0 31 12.5 62t34 56t50 41t61.5 16q25 0 47.5 -14.5t40 -37t28 -49t10.5 -49.5q0 -29 -14.5 -57t-38 -50t-52 -35.5t-56.5 -13.5zM226 795q-5 12 -13.5 27.5t-20.5 15.5q-10 0 -18 -7.5t-13 -18t-8 -22
t-3 -19.5q0 -11 4 -23t18 -12q10 0 20 5.5t18 14t12.5 19t3.5 20.5zM555 580q20 0 38 -12.5t31 -31.5t20.5 -41t7.5 -41q0 -28 -13 -54t-34.5 -46.5t-48.5 -32.5t-55 -12q-47 0 -75.5 30.5t-28.5 75.5q0 34 11.5 64t32.5 52.5t50 35.5t64 13zM492 414q0 -11 5.5 -19t16.5 -8
q10 0 22 5t22 13.5t17 18.5t7 21q0 14 -10 26.5t-26 12.5q-12 0 -22 -7t-17 -17.5t-11 -23t-4 -22.5z" />
    <glyph glyph-name="ampersand" unicode="&#x26;" horiz-adv-x="637" 
d="M364 585q7 14 14 26t7 28q0 8 -3 15.5t-3 15.5q0 24 19.5 40t42.5 16q26 0 47.5 -18t21.5 -45q0 -36 -7.5 -69.5t-18.5 -67.5q14 -11 34.5 -15.5t39 -10t32 -16t13.5 -33.5q0 -15 -11 -26t-26.5 -18t-33 -10.5t-30.5 -3.5q-20 0 -39 7.5t-39 7.5q-18 0 -41.5 -18.5
t-54 -41t-70 -41t-90.5 -18.5q-29 0 -54.5 10.5t-44.5 29t-30 44.5t-11 56q0 25 7 48.5t18.5 45.5t25 42.5t27.5 40.5q-11 19 -20 36t-16 35t-11 37.5t-4 44.5q0 55 25.5 109.5t67.5 98t96 70t111 26.5q28 0 53.5 -8t45 -24t31 -38.5t11.5 -50.5q0 -42 -24.5 -83t-60 -78.5
t-73.5 -71t-65 -60.5zM210 708q15 15 45.5 44t61 62.5t53.5 65.5t23 53q0 14 -13.5 15t-24.5 1q-32 0 -62.5 -16t-54.5 -41.5t-39 -58t-15 -64.5q0 -16 6 -31.5t20 -29.5zM175 541q-18 -29 -31.5 -55t-13.5 -62q0 -10 7.5 -17t18.5 -7q17 0 34.5 6.5t34.5 16.5t32.5 22
t27.5 23z" />
    <glyph glyph-name="quotesingle" unicode="'" horiz-adv-x="189" 
d="M157 975q0 -11 -5 -31.5t-14 -40t-21 -34t-26 -14.5q-17 0 -28.5 10t-11.5 27q0 13 3 37.5t10 47.5t19 40.5t29 17.5q12 0 21 -6t14 -15t7.5 -19.5t2.5 -19.5z" />
    <glyph glyph-name="parenleft" unicode="(" horiz-adv-x="577" 
d="M33 495q7 90 36.5 176.5t74.5 164t101 143t116 113.5q11 9 26 19t30.5 18t31.5 13.5t28 4.5t25 -7.5t23 -17t16 -24.5t5 -30q-2 -20 -13.5 -33t-25.5 -21q-54 -29 -110.5 -85.5t-104.5 -127.5t-80.5 -149.5t-37.5 -152.5q-5 -66 16 -116.5t57 -85.5t83 -54.5t94 -22.5
q22 -2 41 3.5t39 4.5q17 -2 27.5 -17.5t8.5 -36.5q-2 -27 -24.5 -42.5t-51.5 -24t-57.5 -10.5t-43.5 -1q-68 5 -130 33t-108.5 78t-72 122.5t-19.5 165.5z" />
    <glyph glyph-name="parenright" unicode=")" horiz-adv-x="577" 
d="M532 748q-7 -90 -36.5 -176.5t-74.5 -164t-101 -143t-116 -113.5q-11 -9 -26 -19t-30.5 -18.5t-31.5 -13.5t-28 -4t-25 7.5t-23 17t-16 24.5t-5 30q2 20 13.5 33t25.5 21q54 29 110.5 85.5t104.5 127.5t80.5 149.5t37.5 152.5q4 66 -16.5 116.5t-56.5 85.5t-83 54.5
t-94 22.5q-22 2 -41 -3.5t-39 -4.5q-17 2 -27.5 17.5t-8.5 36.5q2 27 24.5 42.5t51.5 24t57.5 10.5t43.5 1q67 -5 129.5 -33t109 -78t72 -122.5t19.5 -165.5z" />
    <glyph glyph-name="asterisk" unicode="*" horiz-adv-x="345" 
d="M243 999q9 -3 20.5 -6t21.5 -8t17 -13t7 -21q0 -26 -14.5 -32t-33.5 -6q-9 0 -11.5 -8.5t-0.5 -13.5q3 -15 9.5 -27.5t6.5 -26.5q0 -15 -10.5 -26.5t-26.5 -11.5q-11 0 -20.5 7.5t-18 18.5t-15 23t-12.5 20l-15 -20t-19.5 -23t-21.5 -19t-21 -8q-12 0 -23 10t-11 24
q0 7 4 16t10 17l12 16t10 14q-18 6 -30 15t-12 32q0 17 7 25.5t18 12.5t24 6t25 5.5t21.5 12t12.5 25.5q2 16 12 29t28 13q13 0 21.5 -7.5t13.5 -19t8.5 -24t6.5 -21.5z" />
    <glyph glyph-name="plus" unicode="+" horiz-adv-x="384" 
d="M252 673q12 -1 31 -2.5t37 -6.5t31 -14.5t13 -27.5q0 -19 -12 -27t-28.5 -10.5t-35 -1t-30.5 1.5h-11t-13 -2q-1 -14 -2 -37.5t-5.5 -46.5t-14 -40t-28.5 -17q-20 0 -29.5 16t-12.5 37.5t-2 43.5t1 35q-9 -1 -19.5 -2t-21.5 -1t-23.5 1t-23 5.5t-17 13.5t-6.5 24
q0 19 14.5 29.5t35 16t41.5 6.5t35 2q2 12 4.5 28.5t8 31.5t15 25.5t26.5 10.5q18 0 27 -10t12 -24t3 -30v-28z" />
    <glyph glyph-name="comma" unicode="," horiz-adv-x="198" 
d="M75 336q-17 0 -28 11.5t-11 25.5q0 17 7 33.5t9 32.5q4 15 1.5 27.5t-2.5 28.5q0 23 17.5 38.5t42.5 15.5q17 0 26 -9t14 -21q5 -16 3.5 -46.5t-10.5 -61t-26 -53t-43 -22.5z" />
    <glyph glyph-name="hyphen" unicode="-" horiz-adv-x="354" 
d="M81 553q-20 0 -35 11t-15 31q0 15 15 25t38.5 16.5t52.5 9.5t56.5 4.5t50.5 1.5h35q14 0 25 -10t11 -24q0 -15 -14.5 -25.5t-37 -17.5t-50 -11.5t-53.5 -7t-47 -3t-32 -0.5z" />
    <glyph glyph-name="period" unicode="." horiz-adv-x="186" 
d="M93 439q-27 0 -46 19t-19 47q0 23 15.5 39.5t38.5 16.5q32 0 53 -15.5t21 -47.5q0 -25 -18.5 -42t-44.5 -17z" />
    <glyph glyph-name="slash" unicode="/" horiz-adv-x="349" 
d="M379 1042q0 -19 -9.5 -58.5t-25.5 -91.5t-38 -111.5t-46.5 -119t-51 -114.5t-51.5 -97.5t-48.5 -67.5t-41.5 -25q-16 0 -28 12t-12 27q0 6 7.5 21.5t17.5 34t19.5 36t13.5 26.5q51 127 93.5 254.5t85.5 255.5q4 12 9 25t12.5 24t17.5 18t25 7q24 0 37.5 -16.5t13.5 -39.5
z" />
    <glyph glyph-name="zero" unicode="0" horiz-adv-x="504" 
d="M493 700q0 -37 -7.5 -83.5t-23 -95.5t-38.5 -95.5t-53.5 -83t-69.5 -58.5t-85 -22t-78 22.5t-52 57t-29 75.5t-9 79q0 44 7.5 100t21.5 113.5t33 110t43 90.5q10 16 30 28.5t43.5 20.5t47.5 12t42 4q56 0 90.5 -26.5t54 -67t26 -89t6.5 -92.5zM319 486q12 23 22 48.5
t17 50.5t10.5 48.5t3.5 42.5q0 16 -3 43.5t-10.5 54.5t-22 47t-36.5 20q-31 0 -41 -34q-23 -75 -37.5 -154t-14.5 -157q0 -58 11.5 -77t28.5 -13t36.5 29.5t35.5 50.5z" />
    <glyph glyph-name="one" unicode="1" horiz-adv-x="304" 
d="M147 768q-18 -8 -34.5 -17.5t-36.5 -9.5q-21 0 -38 14.5t-17 37.5q0 13 7.5 25t16.5 20q54 49 104.5 94.5t100.5 96.5q14 12 27.5 21.5t32.5 9.5q29 0 47.5 -22t18.5 -47q0 -19 -5.5 -36.5t-12.5 -33.5q-28 -72 -53.5 -146.5t-45 -150.5t-31 -153t-11.5 -153
q0 -23 -13 -41t-39 -18q-29 0 -45 19t-22.5 51t-5.5 73.5t6 86.5t13 89.5t16 82.5t13.5 66.5t6.5 40.5z" />
    <glyph glyph-name="two" unicode="2" horiz-adv-x="453" 
d="M216 787q-29 -25 -54 -64t-36 -87q-5 -18 -15 -31t-30 -13q-18 0 -35.5 14.5t-17.5 32.5q0 52 25 107.5t65.5 101.5t92.5 76t105 30q27 0 49 -9.5t37.5 -26t24.5 -38.5t9 -48q0 -44 -20.5 -98t-49.5 -108t-61 -105t-56 -89h31q16 0 39.5 -0.5t45.5 -5.5t37.5 -17
t15.5 -36q0 -21 -14 -33.5t-34 -17.5q-12 -3 -35 -9t-51.5 -13t-59.5 -14.5t-58 -13t-48 -9.5t-30 -4q-25 0 -47 18t-22 45q0 11 5 22t10 20q54 88 108.5 169t103.5 170q6 12 15 26.5t16 29t10.5 28t-2.5 24.5t-23 6.5t-46 -30.5z" />
    <glyph glyph-name="three" unicode="3" horiz-adv-x="439" 
d="M216 871q-23 -21 -40 -48.5t-19 -59.5q-1 -23 -10 -33t-32 -10q-28 0 -43 16t-17 39q-3 39 18.5 83t57 81.5t78 62t80.5 24.5q22 0 41 -9t33.5 -24t24 -34.5t11.5 -40.5q2 -29 -5 -61.5t-19 -64.5t-25.5 -63t-24.5 -56q16 -21 29.5 -38.5t24 -36t17.5 -39t10 -46.5
q5 -58 -14.5 -109.5t-57 -89.5t-88.5 -60.5t-108 -22.5q-18 0 -37.5 5.5t-36.5 16t-28.5 26.5t-13.5 36q-2 22 4.5 33.5t19 16.5t28 6t31.5 1q25 0 51.5 19.5t48 47t34.5 58.5t11 55q-2 22 -12.5 31.5t-23 16.5t-23.5 16.5t-13 32.5q0 9 6.5 28t17.5 43.5t24.5 52t25.5 53.5
q18 39 23.5 60t0 25.5t-21 -6.5t-38.5 -34z" />
    <glyph glyph-name="four" unicode="4" horiz-adv-x="436" 
d="M262 489q-35 -8 -70.5 -17.5t-73.5 -9.5q-39 0 -66 19.5t-27 62.5q0 18 14 53.5t36.5 79.5t50 92t54.5 90t49.5 74t35.5 45q8 7 19 12.5t22 5.5q21 0 37.5 -16.5t16.5 -37.5q0 -11 -11 -36t-27.5 -58t-37 -70t-40 -72t-35.5 -64t-23 -45q25 2 47.5 4.5t45.5 5.5
q6 21 13 55.5t19 66.5t30 55.5t47 23.5t41.5 -20.5t12.5 -45.5q0 -16 -5 -49t-13.5 -75t-18 -89.5t-19 -91.5t-17 -81t-11.5 -59q-5 -23 -17 -35.5t-35 -12.5q-22 0 -33.5 15.5t-16.5 39t-4.5 52t3 55t5 48t2.5 30.5z" />
    <glyph glyph-name="five" unicode="5" horiz-adv-x="456" 
d="M189 706h49q84 0 128 -34.5t55 -86t-7 -112t-58 -112t-98.5 -86t-128.5 -34.5q-14 0 -30 4t-29.5 12.5t-22 20.5t-8.5 28q0 29 19.5 38.5t44.5 9.5q28 0 62 18.5t64 45.5t51.5 59.5t25.5 59.5t-14.5 45.5t-68.5 18.5q-26 0 -41.5 -10.5t-28 -23t-25 -23t-31.5 -10.5
q-26 0 -42 17t-16 43q0 38 12 75.5t26 74.5t26 73.5t12 74.5q0 20 13.5 35t31.5 21q6 2 25.5 4.5t46 5.5t55.5 6t55.5 5.5t47 4t27.5 1.5q21 0 39 -14.5t18 -38.5q0 -16 -11 -27.5t-25 -17.5q-12 -5 -39 -13t-57 -16t-56 -14t-36 -6q-17 0 -27.5 -14t-16.5 -33.5t-10 -40.5
t-7 -34z" />
    <glyph glyph-name="six" unicode="6" horiz-adv-x="439" 
d="M246 651q28 -21 57.5 -41.5t53.5 -44.5t39 -53t15 -67q0 -39 -16.5 -73.5t-44 -61t-64.5 -42t-78 -15.5q-60 0 -96 22.5t-55 59.5t-22.5 84.5t3 96.5t20.5 95.5t30 82.5q22 49 49.5 97.5t58 86.5t63.5 61.5t66 23.5q20 0 35 -12t22.5 -28.5t7 -34.5t-10.5 -29
q-18 -20 -41.5 -49.5t-44 -60t-34.5 -57.5t-13 -41zM207 525q-11 -18 -16.5 -41.5t-3.5 -45t13 -36.5t34 -15q18 0 33 13t15 27q0 12 -5 27t-14.5 29t-23.5 25.5t-32 16.5z" />
    <glyph glyph-name="seven" unicode="7" horiz-adv-x="465" 
d="M447 1000q21 0 36 -15.5t15 -38.5q0 -8 -9.5 -26t-24.5 -42.5t-32.5 -52.5t-34.5 -55.5t-30 -52t-18 -41.5h26q26 0 46.5 -10t20.5 -39q0 -22 -10.5 -33.5t-26.5 -17.5t-35 -9t-37 -7.5t-32 -12t-19 -22.5q-20 -49 -39 -99.5t-24 -104.5q-2 -17 -13.5 -31t-31.5 -14
q-25 0 -39.5 19t-14.5 42q0 45 14 93t25 90q-14 -3 -28.5 -5t-28.5 -2q-27 0 -44.5 16.5t-17.5 43.5q0 23 10 37t26.5 23t36.5 13.5t40 8.5t37.5 8.5t28.5 12.5q16 35 35 71.5t37 71.5q-45 -14 -86.5 -25t-86.5 -11q-14 0 -29 2t-28.5 7.5t-22 16t-8.5 28.5q0 28 19 40.5
t42 16.5q79 3 147 23.5t138 54.5q18 8 35.5 18t35.5 10z" />
    <glyph glyph-name="eight" unicode="8" horiz-adv-x="453" 
d="M24 456q0 38 11.5 79.5t25 77.5t25 62.5t11.5 35.5q0 12 -4.5 24.5t-4.5 26.5q0 22 12 49.5t31.5 55.5t45 54.5t53 47t55 33t51.5 12.5q38 0 57 -26.5t19 -60.5q0 -25 -14 -63.5t-31 -78t-31 -73t-14 -46.5q0 -8 15.5 -25t34 -41.5t34 -55t15.5 -66.5q0 -43 -22.5 -79
t-58 -62t-78 -40.5t-81.5 -14.5t-68 14t-49 38t-30 55.5t-10 66.5zM195 601q-10 -9 -20 -27.5t-18 -41t-11.5 -46t-1 -42.5t14 -31.5t33.5 -12.5q15 0 34.5 6t37 16.5t30 25t12.5 30.5q0 18 -12.5 36t-29.5 34.5t-36.5 30.5t-32.5 22zM207 763q0 -8 3.5 -13t14.5 -3
q14 17 23 31t14 24q10 22 2.5 26.5t-20 -3.5t-25 -25t-12.5 -37z" />
    <glyph glyph-name="nine" unicode="9" horiz-adv-x="469" 
d="M298 580q-23 -1 -45 -2.5t-45 -1.5q-66 0 -102.5 35t-36.5 101q0 40 17.5 87t47 87.5t69 67.5t83.5 27q43 0 70.5 -20t44 -51.5t23 -69.5t6.5 -74q0 -17 4 -26.5t9 -15.5t9 -11.5t4 -15.5q0 -9 -6 -20t-14 -22.5t-15 -24.5t-10 -27q-5 -26 -14.5 -59t-23.5 -68t-32.5 -69
t-41.5 -60.5t-51 -42.5t-61 -16q-41 0 -71.5 22.5t-51 57t-30.5 74t-10 74.5q0 12 1.5 24t7 21.5t15 15t24.5 5.5q21 0 34 -13.5t21.5 -33.5t14.5 -43t12.5 -43t15 -33.5t23.5 -13.5q18 0 35 22.5t31.5 52.5t25 59.5t13.5 43.5zM250 693q16 0 33.5 3.5t34.5 8.5
q3 34 -1 62.5t-12 46t-20 21t-27 -11.5q-11 -12 -24 -33.5t-18.5 -43t1 -37.5t33.5 -16z" />
    <glyph glyph-name="semicolon" unicode=";" horiz-adv-x="195" 
d="M75 406q-17 0 -28 11.5t-11 26.5q0 17 7 33.5t9 32.5q4 14 1.5 26.5t-2.5 28.5q0 23 17.5 38.5t42.5 15.5q17 0 26 -8.5t14 -21.5q5 -16 3.5 -46.5t-10.5 -61t-26 -53t-43 -22.5zM106 736q-27 0 -45.5 19t-18.5 47q0 23 15.5 39.5t38.5 16.5q32 0 52.5 -15.5t20.5 -47.5
q0 -25 -18.5 -42t-44.5 -17z" />
    <glyph glyph-name="less" unicode="&#x3c;" 
d="M195 616q14 -3 41 -9.5t54 -16t47 -22t20 -28.5q0 -20 -10 -32t-29 -12q-15 0 -41.5 3t-58 9t-64.5 15t-59.5 22t-43.5 28.5t-17 35.5q0 13 15.5 31t40 37t54.5 37.5t58.5 33.5t52.5 24t37 9q17 0 31 -11t14 -29q0 -16 -17.5 -33t-41 -32.5t-48 -29t-37.5 -22.5z" />
    <glyph glyph-name="equal" unicode="=" horiz-adv-x="345" 
d="M204 640q9 0 25 -1t31 -5.5t26 -13t11 -23.5q0 -36 -38 -44q-41 -5 -86 -12t-88 -7q-23 0 -40.5 11t-17.5 37q0 23 21.5 35t51 17t59 5.5t45.5 0.5zM93 669q-22 0 -38 11t-16 34q0 25 29.5 36.5t68.5 15.5t77.5 3.5t56.5 -0.5q16 0 27 -12t11 -27q0 -13 -13 -22.5
t-33.5 -16.5t-45.5 -11t-49 -6.5t-44.5 -3.5t-30.5 -1z" />
    <glyph glyph-name="greater" unicode="&#x3e;" 
d="M196 661q-14 3 -41 9.5t-54 16t-47 22t-20 29.5q0 19 10 31t29 12q15 0 41.5 -3t58 -9t64.5 -15t59.5 -21.5t43.5 -28.5t17 -35q0 -13 -15.5 -31t-40 -37.5t-54.5 -38t-58.5 -33.5t-52.5 -24t-37 -9q-17 0 -31 11.5t-14 29.5q0 16 17.5 32.5t41 32.5t47.5 29.5t38 22.5z
" />
    <glyph glyph-name="cent" unicode="&#xa2;" horiz-adv-x="616" 
d="M376 657l-7 -137q19 3 42.5 11t46.5 16.5t44 14.5t36 6q17 0 28 -14t11 -31q0 -18 -25.5 -37.5t-60 -36.5t-68.5 -30t-51 -19q3 -14 5 -29.5t2 -30.5q0 -16 -9.5 -26.5t-26.5 -10.5q-13 0 -21.5 8t-14 19t-9 24t-6.5 22l-51 -1q-39 0 -74.5 13t-61.5 37t-41.5 57.5
t-15.5 75.5q0 46 19 85t50 70t70.5 52.5t80.5 33.5q12 4 18 16t8.5 28.5t4.5 34.5t7.5 32.5t15.5 24.5t30 10q21 0 29 -16t9.5 -38t-1 -44.5t-2.5 -35.5q19 -6 40.5 -14.5t39 -21t29 -31t11.5 -44.5q0 -12 -5.5 -25t-15 -23.5t-22 -17t-25.5 -6.5q-6 0 -13.5 4.5t-15.5 10
t-15.5 11.5t-13.5 9zM280 627l-6 4q-9 -7 -21 -16t-23 -20t-18.5 -23.5t-7.5 -24.5q0 -15 6.5 -23t17 -12.5t22.5 -6t23 -1.5l7 4v119z" />
    <glyph glyph-name="Euro" unicode="&#x20ac;" horiz-adv-x="651" 
d="M156 603h-32q-23 0 -42 9t-19 36q0 21 10.5 32t26.5 16t33.5 6.5t32.5 3.5q12 48 31.5 102t49.5 100t73.5 76t103.5 30q45 0 81 -21t62 -55t40 -75.5t14 -81.5q0 -12 -2.5 -25.5t-8.5 -25t-15.5 -18.5t-24.5 -7q-18 0 -28.5 13t-18.5 33t-15.5 42.5t-18.5 42.5t-27.5 33
t-43.5 13q-26 0 -46.5 -20.5t-36 -49t-26.5 -58.5t-18 -49q23 1 47 3.5t47 2.5q15 0 28 -9t13 -27q0 -19 -17 -30t-40 -17.5t-47.5 -9.5t-39.5 -6v-33q30 0 60.5 2t59.5 2q23 0 37.5 -10t14.5 -33q0 -19 -20.5 -30t-47.5 -17.5t-54.5 -9.5t-40.5 -5q3 -16 10 -42.5t18 -52
t27 -44t36 -18.5q18 0 34 12t31 30t28.5 39t25.5 39t23.5 30t22.5 12q27 0 38.5 -17t11.5 -42q0 -33 -21 -72t-53 -72t-70 -55.5t-72 -22.5q-51 0 -88.5 25.5t-63.5 64t-42 84.5t-25 87h-44q-14 0 -27.5 2t-24.5 7.5t-17.5 16t-6.5 27.5q0 19 11.5 30t28.5 16t35.5 7t33.5 4
z" />
    <glyph glyph-name="yen" unicode="&#xa5;" horiz-adv-x="478" 
d="M291 486q13 0 30.5 -1t33.5 -5.5t27.5 -13.5t11.5 -25q0 -20 -18 -29t-42.5 -11.5t-49.5 -1.5t-40 1q-6 -13 -15.5 -36.5t-23 -47t-30 -41t-36.5 -17.5q-18 0 -30 11.5t-12 28.5q0 9 3.5 22t8 27t10 27.5t8.5 22.5h-30.5t-31.5 4t-25 13t-10 27q0 21 11.5 32t29.5 15
t38.5 4h38.5t18 13v8q-23 -2 -44 -4t-41 -2q-51 0 -51 45q0 22 19 32t45 13t53 1.5t42 -1.5q10 0 17 3.5t7 14.5q0 7 -6.5 8.5t-13.5 4.5q-26 16 -54 41.5t-51 55.5t-37.5 61.5t-14.5 59.5q0 23 17.5 39t42.5 16q18 0 34.5 -7t26.5 -23q24 -38 47.5 -77.5t50.5 -76.5
q6 14 18 40.5t27.5 58.5t34 65.5t37.5 61t37.5 45t34.5 17.5q23 0 38.5 -13.5t15.5 -33.5q0 -11 -10 -38t-25 -61.5t-34 -74t-37 -75.5l-33 -66t-22 -46q17 1 35 2.5t34 1.5q18 0 31 -9.5t13 -26.5q0 -18 -12 -26t-29.5 -11.5t-38 -4t-38 -3.5t-29.5 -10t-12 -24z" />
    <glyph glyph-name="multiply" unicode="&#xd7;" horiz-adv-x="390" 
d="M103 600q-7 8 -16.5 17.5t-17.5 20t-14 21.5t-6 23q0 17 13 30.5t31 13.5q11 0 25 -7t27.5 -17.5t25.5 -21.5t21 -19q8 5 27 18t39.5 26.5t38.5 23.5t25 10q15 0 25 -10t10 -24q0 -12 -12.5 -26.5t-29 -28.5t-33.5 -26.5t-26 -19.5q7 -7 20.5 -17.5t26 -21.5t22 -23
t9.5 -22q0 -17 -12 -28t-28 -11q-11 0 -27 7.5t-32.5 17.5t-32 20.5t-25.5 16.5q-9 -7 -23 -19t-29 -23.5t-30 -20t-25 -8.5q-14 0 -26.5 11.5t-12.5 26.5q0 11 8.5 24t20.5 25.5t24 23t19 17.5z" />
    <glyph glyph-name="divide" unicode="&#xf7;" horiz-adv-x="409" 
d="M177 585q-12 0 -35 -1.5t-45.5 1.5t-39.5 13t-17 33q0 18 7.5 27.5t19 14t25 5.5t26.5 1q29 0 56.5 -3t54.5 -3q26 0 52.5 5.5t51.5 5.5q18 0 30 -10.5t12 -28.5q0 -23 -25.5 -35t-59 -17.5t-66 -6.5t-47.5 -1zM277 748q0 -16 -12.5 -29.5t-29.5 -13.5q-16 0 -29 12.5
t-13 30.5t12 31t29 13t30 -13t13 -31zM162 499q0 17 11.5 29.5t28.5 12.5q20 0 32 -12.5t12 -30.5q0 -16 -13 -28.5t-29 -12.5q-17 0 -29.5 12.5t-12.5 29.5z" />
    <glyph glyph-name="O" unicode="O" horiz-adv-x="996" 
d="M145 829q34 48 76 90t89.5 72.5t99 48t104.5 17.5q21 0 46.5 -5.5t47.5 -17.5t37 -30t15 -43q0 -21 -13.5 -32.5t-33.5 -13.5q-79 -7 -147 -43.5t-119 -91.5t-81.5 -123t-33.5 -138q-4 -75 14.5 -131.5t53 -93.5t81.5 -54t99.5 -13t106.5 30t104 74q20 19 37.5 44
t30.5 51.5t20.5 53t7.5 49.5q0 40 -22.5 64t-55.5 38t-72.5 22t-72.5 18.5t-55.5 26t-22.5 44.5t17.5 47.5t43 28.5t54 13.5t51.5 3.5q67 0 123 -19t95.5 -55.5t61.5 -90.5t22 -123q0 -61 -23 -120.5t-62 -113t-91 -99.5t-111 -79t-121 -52t-120 -19q-103 0 -176.5 38
t-120 100.5t-67.5 143.5t-18 166t28.5 167.5t72.5 149.5z" />
    <glyph glyph-name="N" unicode="N" horiz-adv-x="898" 
d="M228 586l-26 -354q-3 -23 -6 -48t-11 -46t-23 -34.5t-42 -13.5q-20 0 -34.5 9.5t-24.5 24.5t-14.5 34.5t-4.5 39.5q0 148 11 296t29 295q3 22 9.5 50t18 53t29 42t41.5 17q21 0 35 -17.5t25 -35.5q45 -77 84.5 -157t86 -156.5t105.5 -146.5t142 -126q-1 87 -3 178.5
t1.5 181.5t16 176.5t39.5 162.5q20 51 44 82.5t58 31.5q49 0 75 -33t15 -96q-3 -16 -15 -69.5t-25.5 -134.5t-24 -184t-10.5 -218q0 -45 6 -87t6 -87q0 -20 -6.5 -39t-17.5 -33.5t-27 -23.5t-34 -9q-41 0 -89 23.5t-97.5 62t-97.5 87t-90.5 98t-76 96t-52.5 80.5l-18 31z
" />
    <glyph glyph-name="M" unicode="M" horiz-adv-x="999" 
d="M486 540q10 15 31 47t49 73.5t61.5 89.5t69 96t70.5 92.5t65.5 78.5t55 54.5t39.5 20.5q16 0 30 -7.5t25 -19.5t17.5 -27.5t6.5 -32.5q0 -47 -14 -99t-23 -101q-20 -113 -32 -229.5t-12 -235.5q0 -42 2 -86t19 -83q8 -12 8 -29q0 -36 -20.5 -60.5t-54.5 -24.5
q-46 0 -72.5 41.5t-39 106t-14.5 142t0 149t5.5 127t1.5 76.5q-24 -33 -48.5 -76.5t-49.5 -87t-50 -82.5t-50 -65q-12 -16 -29 -24.5t-34 -8.5q-26 0 -52.5 18t-52.5 46.5t-50.5 64t-46 71t-39 67t-29.5 51.5l-10 8v-48q0 -29 -1 -72.5t-3.5 -95t-6.5 -106.5t-9 -105.5
t-12 -92.5t-15 -67q-5 -19 -21 -33.5t-37 -14.5q-20 0 -33 8.5t-20 22t-9.5 31t-2.5 36.5q0 14 1.5 27.5t3.5 27.5q10 106 14 211t4 211v352q0 19 5 37t15 31.5t25.5 22t35.5 8.5q21 0 38.5 -13t31.5 -33q38 -52 70 -113t62.5 -125t62 -127.5t68.5 -120.5z" />
    <glyph glyph-name="L" unicode="L" horiz-adv-x="765" 
d="M571 282q22 4 47 9.5l50 11t49.5 9.5t47.5 4q28 0 47.5 -18.5t19.5 -56.5q0 -16 -5 -29.5t-16 -21.5q-18 -18 -57.5 -36.5t-91 -35.5t-108.5 -31.5t-110.5 -25.5t-97.5 -17.5t-69 -6.5q-101 0 -154 39.5t-71 108t-8 161t34 198.5q13 61 30 126t36 126.5t39.5 116.5t42 96
t43.5 65t43 24q25 0 42.5 -23t17.5 -54q0 -12 -9 -50.5t-22.5 -91t-30.5 -112.5t-32.5 -115.5t-28 -100t-17.5 -65.5q-24 -96 -23 -151t21 -81t56 -29t82 6.5t98 25t105 25.5z" />
    <glyph glyph-name="K" unicode="K" horiz-adv-x="885" 
d="M216 592q120 63 235 127t230 136q25 16 50 32.5t53 28.5q21 12 45 12t41.5 -16t17.5 -41q0 -29 -33 -64.5t-84.5 -73.5t-114 -75.5t-122 -70.5t-108 -58.5t-71.5 -38.5q22 -10 55.5 -22.5t73.5 -25.5t82.5 -25.5t82.5 -22t74 -15.5t57 -6q26 0 45 -21.5t19 -48.5
q0 -20 -9 -33t-23 -21t-31.5 -11t-35.5 -3q-68 0 -142.5 11.5t-147 34.5t-139 56.5t-118.5 77.5q-7 -25 -6.5 -55t0.5 -57q0 -17 0.5 -34t2.5 -34q0 -13 4.5 -24.5t10 -23t9.5 -23t4 -23.5q0 -22 -15.5 -38t-38.5 -16q-32 0 -53 24t-35 62t-21 84.5t-10 91.5t-3.5 82.5
t-0.5 58.5q0 24 1.5 71t7 104t15 116.5t25.5 108.5t39 80.5t55 31.5q27 0 47 -19.5t20 -45.5q0 -43 -6.5 -86t-14 -86t-13.5 -86.5t-6 -86.5z" />
    <glyph glyph-name="J" unicode="J" horiz-adv-x="879" 
d="M765 1003q30 -107 47 -200.5t14 -181.5t-28 -174.5t-77 -178.5q-30 -54 -68.5 -101t-84 -82t-98 -55t-112.5 -20q-75 0 -132 35t-95.5 90.5t-58.5 123.5t-20 135q0 25 3 57t13.5 59.5t31 46.5t54.5 19q31 0 51 -21.5t33 -54.5t22 -74t19 -80q16 -64 45 -96t64.5 -35
t74 21.5t72.5 72.5q56 81 81 168t28.5 172.5t-8.5 165t-30 145.5q-39 -10 -89.5 -27t-103 -33.5t-101.5 -29t-86 -12.5q-43 0 -69.5 28.5t-26.5 70.5q0 34 18.5 58t49.5 35q26 9 73 20t104.5 22t120 21t120.5 18t106 13t76 5q13 0 25 -5.5t22 -14.5t16 -21t6 -25
q0 -22 -10 -35.5t-25 -22t-33 -13.5t-34 -9z" />
    <glyph glyph-name="I" unicode="I" horiz-adv-x="634" 
d="M216 268q2 171 20.5 340t55.5 335q-28 0 -55 -3t-53 -3q-28 0 -49 17.5t-21 53.5q0 37 25 58t59.5 30.5t70.5 11.5t58 2h50t73.5 -0.5t84 -1.5t82.5 -3t68 -5t41 -7q17 -5 29.5 -20.5t12.5 -39.5q0 -27 -19 -39.5t-37 -14.5q-59 -5 -115.5 -4.5t-113.5 -10.5
q-107 -353 -137 -693h30q20 0 57 1t74 -4.5t64 -20.5t27 -48q0 -27 -18.5 -40t-44 -17.5t-52.5 -5t-44 -3.5l-267 -37q-16 -2 -33 -3.5t-33 -1.5q-28 0 -48.5 18t-20.5 54q0 30 20.5 49.5t49 31.5t59 17t50.5 7z" />
    <glyph glyph-name="H" unicode="H" horiz-adv-x="1038" 
d="M364 619l312 12q3 25 8 70.5t14 99.5t21.5 110t29.5 102t39 75t50 29q29 0 47.5 -24.5t18.5 -59.5q0 -48 -6.5 -100.5t-14.5 -105t-14 -101.5t-5 -90q16 0 40 0.5t46.5 -4.5t38.5 -18t16 -40q0 -28 -19 -42t-45.5 -20t-54.5 -7t-46 -4q-14 -85 -24 -170.5t-17 -173.5
q-2 -28 -16.5 -50t-41.5 -22q-26 0 -41 24t-23 62t-10.5 84t-1.5 90.5t2.5 81.5t1.5 57l-351 -48q-5 -45 -13 -95.5t-8 -94.5q0 -23 9 -41.5t9 -41.5q0 -15 -5 -29t-14 -25t-21 -17.5t-25 -6.5q-26 0 -43.5 13.5t-29.5 36t-18.5 50.5t-9.5 57t-4 56t-1 47v81
q-20 0 -39.5 2.5t-34.5 11t-24.5 25t-9.5 43.5q0 29 12.5 47.5t31.5 29.5t41 16.5t41 7.5q13 72 25.5 145t33.5 141.5t54 130.5t86 112q8 7 18 12t21 5q32 0 51.5 -21.5t19.5 -59.5q0 -41 -15 -99.5t-34 -122t-36.5 -125t-21.5 -108.5z" />
    <glyph glyph-name="G" unicode="G" horiz-adv-x="913" 
d="M613 337q-20 0 -42.5 6.5t-42.5 19.5t-35 32t-18 43q-5 39 12 63t44.5 37.5t60 18t59.5 4.5q38 0 77 -7.5t72 -26.5t56 -50.5t29 -79.5q5 -47 -8.5 -93.5t-43 -88t-72 -76t-95 -58.5t-112.5 -35t-124 -6q-79 6 -146 38.5t-118 84.5t-83.5 121t-42.5 149q-9 77 5 159
t46 160.5t80.5 148.5t108 122.5t128 83.5t141.5 31q44 0 87.5 -13.5t79.5 -40t60.5 -65t31.5 -89.5q3 -23 0 -52.5t-13 -55t-26.5 -43t-41.5 -17.5q-21 0 -31 12t-14.5 28.5t-5.5 35t-3 32.5q-7 48 -33.5 69.5t-72.5 21.5q-54 0 -104.5 -25t-94 -67t-79 -97.5t-59 -115.5
t-33 -121t-2.5 -115q12 -96 58 -147.5t109 -65t134 8.5t131 75q32 29 29 37.5t-43 8.5z" />
    <glyph glyph-name="F" unicode="F" horiz-adv-x="801" 
d="M387 958q-10 -47 -24.5 -109.5t-30 -133t-31 -144t-27.5 -142t-19.5 -127.5t-7.5 -100q0 -25 5.5 -48t5.5 -46q0 -29 -19 -48.5t-44 -19.5q-24 0 -41.5 18.5t-28 44.5t-15.5 55t-5 49q0 175 15 341.5t60 334.5q-22 -14 -42 -27t-45 -13q-15 0 -28.5 7t-24 19t-16.5 27.5
t-6 33.5q0 44 26.5 78t68.5 58.5t94.5 40.5t104 25.5t96.5 13.5t73 4q22 0 58 -0.5t76 -4.5t80.5 -12.5t73.5 -24.5t53.5 -41t20.5 -62q0 -24 -18 -41.5t-38 -17.5q-7 0 -16.5 6.5t-25 14.5t-39 14.5t-57.5 6.5q-66 0 -131 -8t-131 -22zM508 712q26 0 64 -1t73.5 -10.5
t61 -30.5t25.5 -60q0 -32 -23 -55t-57 -23q-27 0 -52.5 5.5t-51 12t-51 12t-52.5 5.5q-16 0 -34.5 -1.5t-34.5 2t-26.5 15.5t-10.5 39t19.5 44t47 27.5t56 14.5t46.5 4z" />
    <glyph glyph-name="E" unicode="E" horiz-adv-x="789" 
d="M264 31q-60 0 -102.5 28t-69.5 73.5t-40 104.5t-13 121q0 65 10.5 131t29.5 130t44 125.5t54 117.5q-15 -5 -30.5 -11.5t-31.5 -6.5q-25 0 -44.5 19.5t-19.5 51.5q0 22 17 42.5t41 37.5t49 31t41 22q77 40 159 59t167 22l42 2q20 0 51 -1t65 -5t68 -12.5t61.5 -24.5
t44.5 -40t17 -58q0 -27 -13 -43t-36 -16q-21 0 -33 18q-12 15 -30.5 22t-39 8.5t-41 0.5t-36.5 -1q-69 0 -135 -10t-134 -23l2 -18q0 -35 -12 -63.5t-24 -57.5q-24 -59 -46 -120t-38 -124.5t-25.5 -128.5t-9.5 -130q0 -48 16.5 -69t54.5 -21q33 0 72.5 10t80.5 25.5t80 33.5
t71 33.5t55 25.5t31 10q19 0 33.5 -18t14.5 -42q0 -26 -29 -55t-73.5 -58t-99.5 -56t-107 -47.5t-95 -32.5t-64 -12zM624 673q12 0 25.5 -2t24.5 -8.5t18 -17.5t7 -29q0 -23 -11 -39.5t-31 -21.5q-21 -6 -61 -14t-84 -14.5t-85 -11t-63 -4.5q-14 0 -27 3t-23 10t-16.5 19.5
t-6.5 30.5q0 20 9 32.5t24 23.5q18 12 58.5 20.5t86.5 13t89 7t66 2.5z" />
    <glyph glyph-name="D" unicode="D" horiz-adv-x="843" 
d="M363 1044q23 1 46 3.5t47 2.5q70 0 138 -19t121 -57t86 -97t33 -138q0 -57 -18.5 -116t-49.5 -117.5t-71.5 -114.5t-84.5 -106t-89 -93t-85 -74q-44 -35 -86.5 -56.5t-79.5 -21.5q-20 0 -33.5 14.5t-13.5 33.5q0 20 15 35q4 5 9 8t11 8q41 30 88.5 70.5t94.5 88.5
t90.5 102.5t77 112.5t53.5 118t20 119q0 49 -24.5 80t-61.5 48.5t-81 24t-82 6.5q-23 0 -47 -2.5t-50 -8.5q-11 -75 -23 -149.5t-21.5 -149.5t-15.5 -150.5t-6 -151.5q0 -14 5.5 -23t11.5 -17.5t11.5 -17.5t5.5 -22q0 -26 -19 -43t-45 -17q-37 0 -61.5 23.5t-40 60.5
t-23.5 82.5t-11.5 91t-3.5 85.5v65q0 49 4.5 97t4.5 97v12q-7 -2 -12.5 -3.5t-12.5 -1.5q-23 0 -38 16.5t-15 37.5q0 13 7.5 29.5t18 32t23 29t23.5 20.5q20 13 36 33.5t29.5 43.5t27 47t28 43t32.5 31t41 12q22 0 35 -8.5t20 -22.5t9 -31.5t2 -34.5z" />
    <glyph glyph-name="C" unicode="C" horiz-adv-x="889" 
d="M616 1134q31 0 69 -9t70.5 -27.5t54.5 -47t22 -66.5q0 -15 -5 -31t-14 -29t-22 -21t-29 -8t-23.5 7t-12 17t-9 22t-14 22t-28 17t-50.5 7q-65 0 -125 -34t-110 -89t-87.5 -125.5t-57 -144.5t-19 -144.5t26 -125.5t79 -89t139.5 -34q60 0 104 21.5t79 47.5t65 47.5
t61 21.5q28 0 49 -21t21 -50q0 -34 -19 -64.5t-50 -56.5t-70 -47t-79 -35.5t-77.5 -22.5t-65.5 -8q-107 0 -185 31t-130.5 83.5t-80.5 123t-33.5 149.5t9 163t47.5 163t82.5 149.5t113.5 123t140.5 83.5t163.5 31z" />
    <glyph glyph-name="B" unicode="B" horiz-adv-x="769" 
d="M100 669q-28 11 -46 25.5t-18 46.5q0 42 17 81.5t44 74.5q16 22 27.5 46.5t22 49.5t21.5 49.5t27 47.5q10 17 25 29.5t35 12.5q21 0 36 -11t31 -22q59 27 118 43t125 16q38 0 80.5 -8.5t78.5 -28t59.5 -51.5t23.5 -79q0 -56 -32.5 -106.5t-79.5 -95.5t-99 -82.5
t-92 -66.5q39 -10 77 -25.5t68 -39.5t48 -58.5t18 -83.5q0 -41 -20 -87t-53.5 -92.5t-76.5 -89t-89.5 -75t-93 -52t-85.5 -19.5q-13 0 -26 2t-23 7.5t-16 15t-6 24.5q0 18 9.5 32t26.5 19q25 7 57.5 25.5t66.5 44.5t67 57.5t58.5 65.5t41 69t15.5 67q0 26 -23.5 42t-58.5 23
t-76 5t-76 -12t-58.5 -27t-23.5 -40q0 -25 3.5 -53t5.5 -54q2 -16 10.5 -24t17.5 -15t16.5 -16t7.5 -26q0 -26 -18 -40t-42 -14q-41 0 -68.5 27.5t-44.5 71.5t-25.5 98t-11.5 106.5t-3 98v71.5zM319 939q-11 -8 -19 -28.5t-14 -48.5t-10 -60t-7 -62.5t-4.5 -56t-3.5 -40.5
q18 11 45.5 31t60.5 45t68.5 54t68.5 59q52 47 77.5 81t31 56.5t-6.5 34.5t-35 15.5t-55 -1.5t-66 -16t-68.5 -27t-62.5 -36z" />
    <glyph glyph-name="A" unicode="A" horiz-adv-x="990" 
d="M903 541q20 -8 37.5 -22.5t17.5 -40.5q0 -16 -5 -27t-13.5 -18.5t-19.5 -12.5t-23 -8q-4 -18 -8 -49t-10.5 -67t-15.5 -73.5t-22 -67.5t-30 -49t-39 -19q-41 0 -57 27.5t-16 66.5q0 52 4 108t9 108l-439 -55l-2 -44q0 -26 4.5 -50.5t10.5 -46t10.5 -39t4.5 -29.5
q0 -14 -6 -26.5t-16 -22t-23 -15.5t-28 -6q-26 0 -44.5 14t-31.5 37t-21 52t-12.5 58.5t-6.5 56.5t-4 46q-16 1 -30.5 4.5t-25.5 10.5t-17.5 19t-6.5 30q0 20 9 33.5t22 23t28 16.5t28 13q5 16 7 32t7 32q11 52 34 116.5t55.5 131.5t74 131t91.5 113.5t107 80t119 30.5
q70 0 118.5 -30t81.5 -79.5t51.5 -113t27.5 -130.5t11.5 -132.5t2.5 -117.5zM720 525v103q0 19 -1.5 52.5t-6 71.5t-12.5 77.5t-21.5 71.5t-32.5 52t-45 20q-36 0 -71.5 -26t-68 -67.5t-61.5 -93.5t-51 -104t-37 -99t-20 -78z" />
    <glyph glyph-name="trademark" unicode="&#x2122;" horiz-adv-x="660" 
d="M249 1044q-3 -20 -5.5 -47.5t-5 -56.5t-3.5 -56.5t-1 -46.5q0 -18 3.5 -27.5t7 -14.5t7 -8.5t3.5 -9.5q0 -8 -6.5 -14.5t-14.5 -6.5q-19 0 -30.5 18t-18 45t-8 60.5t-1 64.5t3 56t4.5 35q-26 -2 -51 -2.5t-51 -0.5q-12 0 -22.5 6.5t-10.5 20.5q0 8 3 12.5t12 9.5
q4 2 23 6t45.5 8.5t57 9t58.5 8.5t49.5 6.5t30.5 2.5q15 0 25.5 -5t10.5 -22q0 -14 -14 -23t-33 -14t-38.5 -8t-29.5 -6zM433 915q4 7 15.5 23t26 36.5t31 42t31.5 40t27.5 30t18.5 11.5q11 0 19 -9t8 -20q0 -16 -4 -33t-8 -33q-7 -37 -11 -76t-4 -78q0 -14 1 -28t7 -28
q1 -3 1 -9q0 -12 -6.5 -20t-18.5 -8q-16 0 -24.5 14t-13 35t-5 46.5t0.5 49t2 41.5t1 25q-9 -11 -17.5 -25t-16.5 -28t-16.5 -27t-17.5 -22q-9 -10 -22 -10t-26.5 12.5t-26 30t-23 35l-16.5 27.5l-3 1v-15q0 -14 -1 -39t-2.5 -51.5t-5 -51t-7.5 -36.5q-2 -6 -7.5 -10.5
t-12.5 -4.5q-14 0 -18 9.5t-4 21.5q0 5 0.5 9t0.5 9q4 35 6 70t2 70l3 73q0 14 6.5 23.5t20.5 9.5t24 -15q13 -17 23 -30.5t20 -26.5t20 -27.5t22 -33.5z" />
    <glyph glyph-name="plusminus" unicode="&#xb1;" horiz-adv-x="384" 
d="M252 726q12 -1 31 -2.5t37 -6.5t31 -15t13 -27q0 -19 -12 -27.5t-28.5 -10.5t-35 -1t-30.5 1h-11t-13 -1q-1 -14 -2 -38t-5.5 -47t-14 -39.5t-28.5 -16.5q-20 0 -29.5 15.5t-12.5 37t-2 44t1 35.5q-18 -3 -41 -3q-11 0 -23.5 1t-23 5.5t-17 13t-6.5 23.5q0 19 14.5 29.5
t35 16t41.5 7t35 1.5q2 12 4.5 28.5t8 31.5t15 25.5t26.5 10.5q18 0 27 -10t12 -24t3 -29.5v-27.5zM94 384q-19 1 -33 13.5t-12 32.5q1 15 17 23.5t40 13t53 5.5t56.5 0t50 -3t34.5 -3q14 -1 24 -12t9 -25q-2 -21 -33.5 -31.5t-72 -13.5t-79 -2t-54.5 2z" />
    <glyph glyph-name="colon" unicode=":" horiz-adv-x="195" 
d="M106 736q-27 0 -45.5 19t-18.5 47q0 23 15.5 39.5t38.5 16.5q32 0 52.5 -15.5t20.5 -47.5q0 -25 -18.5 -42t-44.5 -17zM93 454q-27 0 -46 19t-19 47q0 23 15.5 39.5t38.5 16.5q32 0 53 -15.5t21 -47.5q0 -25 -18.5 -42t-44.5 -17z" />
    <glyph glyph-name="quotedblright" unicode="&#x201d;" horiz-adv-x="337" 
d="M157 975q0 -11 -5 -31.5t-14 -40t-21 -34t-26 -14.5q-17 0 -28.5 10t-11.5 27q0 13 3 37.5t10 47.5t19 40.5t29 17.5q12 0 21 -6t14 -15t7.5 -19.5t2.5 -19.5zM289 975q0 -11 -5 -31.5t-14 -40t-21 -34t-26 -14.5q-17 0 -28.5 10t-11.5 27q0 13 3 37.5t10 47.5t19 40.5
t29 17.5q12 0 21 -6t14 -15t7.5 -19.5t2.5 -19.5z" />
    <glyph glyph-name="quotedblleft" unicode="&#x201c;" horiz-adv-x="337" 
d="M157 975q0 -11 -5 -31.5t-14 -40t-21 -34t-26 -14.5q-17 0 -28.5 10t-11.5 27q0 13 3 37.5t10 47.5t19 40.5t29 17.5q12 0 21 -6t14 -15t7.5 -19.5t2.5 -19.5zM289 975q0 -11 -5 -31.5t-14 -40t-21 -34t-26 -14.5q-17 0 -28.5 10t-11.5 27q0 13 3 37.5t10 47.5t19 40.5
t29 17.5q12 0 21 -6t14 -15t7.5 -19.5t2.5 -19.5z" />
    <glyph glyph-name="quoteright" unicode="&#x2019;" horiz-adv-x="189" 
d="M157 975q0 -11 -5 -31.5t-14 -40t-21 -34t-26 -14.5q-17 0 -28.5 10t-11.5 27q0 13 3 37.5t10 47.5t19 40.5t29 17.5q12 0 21 -6t14 -15t7.5 -19.5t2.5 -19.5z" />
    <glyph glyph-name="quoteleft" unicode="&#x2018;" horiz-adv-x="189" 
d="M157 975q0 -11 -5 -31.5t-14 -40t-21 -34t-26 -14.5q-17 0 -28.5 10t-11.5 27q0 13 3 37.5t10 47.5t19 40.5t29 17.5q12 0 21 -6t14 -15t7.5 -19.5t2.5 -19.5z" />
    <glyph glyph-name="sterling" unicode="&#xa3;" horiz-adv-x="627" 
d="M264 351q-13 -21 -32 -42.5t-41.5 -39t-48 -28t-51.5 -10.5t-43.5 18.5t-17.5 44.5q0 18 9 30t23 23t31 23.5t34 31.5t31 47t23 70q-16 1 -31.5 4t-28 9.5t-20 18t-7.5 29.5t9.5 30t23.5 20t30.5 13t31.5 8q0 30 0.5 68t5.5 77t15.5 76.5t30 66.5t50 46.5t75.5 17.5
q30 0 56 -12t45.5 -32.5t31 -48t11.5 -57.5q0 -14 -4.5 -37t-13 -44.5t-21.5 -37.5t-29 -16q-21 0 -31.5 13t-10.5 32q0 18 4.5 35.5t4.5 35.5q0 23 -11.5 37t-34.5 14q-22 0 -34 -17.5t-17.5 -41.5t-6.5 -48.5t-1 -39.5l2 -86q17 0 46.5 -1t58 -6.5t49.5 -18.5t21 -38
q0 -24 -20.5 -36t-48.5 -17t-57.5 -5.5t-47.5 -1.5l-9 -77q12 -5 28 -16.5t31 -24t27.5 -22t17.5 -9.5q18 0 32.5 14.5t28.5 32t31 32t41 14.5q26 0 43 -20.5t17 -43.5q0 -24 -18.5 -53.5t-45.5 -55.5t-58 -43.5t-55 -17.5q-27 0 -49.5 10.5t-41 27t-34.5 36.5t-29 39z" />
    <glyph glyph-name="at" unicode="@" horiz-adv-x="817" 
d="M465 552q-24 -18 -47 -36t-55 -18q-24 0 -42.5 12.5t-31.5 31t-20 41.5t-7 44q0 40 13.5 83.5t38.5 80t61 60t81 23.5q18 0 35.5 -7.5t31 -20.5t22 -30t8.5 -36q0 -37 -25 -68q12 -9 16 -18t5 -19t-0.5 -21t-1.5 -24q0 -14 6 -26t24 -12q26 0 48 20.5t38.5 49.5t26 60.5
t9.5 54.5q0 40 -14 68t-38.5 46t-57 26t-69.5 8q-62 0 -126.5 -25.5t-117 -69t-86 -102.5t-33.5 -125q0 -90 52.5 -139t144.5 -49q44 0 90 11t91 24.5t87.5 25t79.5 11.5q25 0 44.5 -18t19.5 -46q0 -25 -22.5 -46.5t-57.5 -38.5t-78.5 -29.5t-85 -21t-77 -13t-55.5 -4.5
q-78 0 -144.5 21t-116 63t-77.5 104.5t-28 144.5q0 97 41.5 177t109 137.5t154 89t176.5 31.5q61 0 114 -17.5t92 -51.5t61.5 -84t22.5 -114q0 -43 -16.5 -91.5t-46 -90t-69.5 -69t-87 -27.5q-31 0 -47.5 7t-26.5 17t-17 19.5t-20 15.5zM483 717q-4 6 -8 15t-8.5 17.5
t-10 15t-11.5 6.5q-23 0 -41 -15t-31 -36.5t-20 -46t-7 -43.5q0 -6 0.5 -16t2.5 -19t6.5 -15.5t13.5 -6.5q15 0 32 18t33 42t29 48t20 36z" />
    <glyph glyph-name="asciicircum" unicode="^" horiz-adv-x="372" 
d="M195 919q-7 -13 -19 -35.5t-27.5 -44.5t-33 -38.5t-33.5 -16.5q-18 0 -30.5 13t-12.5 31q0 8 10 27.5t25 44t33.5 52.5t35.5 53.5t31 46t21 31.5q8 10 20.5 20.5t28.5 10.5q25 0 38 -18.5t15 -41.5q2 -25 3.5 -50t3.5 -50q2 -14 9.5 -34.5t15 -40t13.5 -34t6 -16.5
q0 -19 -15 -32t-33 -13q-21 0 -37.5 15t-29 36.5t-22 44.5t-16.5 39z" />
    </font>
</defs>
</svg>
